<svg xmlns="http://www.w3.org/2000/svg" xmlns:xlink="http://www.w3.org/1999/xlink" viewBox="0 0 963.18 325.47"><defs><style>.cls-1{fill:#38c138;}.cls-2{fill:#fff;}.cls-3{fill:#f6d182;}.cls-4{fill:#00a9f4;}</style><symbol id="DH_Logo_RGB_W" data-name="DH Logo RGB W" viewBox="0 0 963.18 325.47"><g id="Wordmark"><path id="Outline" d="M963.18,187.31v57a3,3,0,0,1-3,3h-3a3,3,0,0,0-3,3v3a3,3,0,0,1-3,3h-57a3,3,0,0,1-3-3v-3a3,3,0,0,0-3-3h-3a3,3,0,0,0-3,3v3a3,3,0,0,1-3,3h-30a3,3,0,0,1-3-3v-3a3,3,0,0,0-3-3h-3a3,3,0,0,0-3,3v3a3,3,0,0,1-3,3h-30a3,3,0,0,1-3-3v-3a3,3,0,0,0-3-3h-3a3,3,0,0,0-3,3v3a3,3,0,0,1-3,3h-57a3,3,0,0,1-3-3v-3a3,3,0,0,0-3-3h-3a3,3,0,0,0-3,3v3a3,3,0,0,1-3,3h-147a3,3,0,0,1-3-3v-3a3,3,0,0,0-3-3h-3a3,3,0,0,0-3,3v3a3,3,0,0,1-3,3h-30a3,3,0,0,1-3-3v-3a3,3,0,0,0-3-3h-3a3,3,0,0,0-3,3v3a3,3,0,0,1-3,3h-57a3,3,0,0,1-3-3v-3a3,3,0,0,0-3-3h-3a3,3,0,0,0-3,3v3a3,3,0,0,1-3,3h-30a3,3,0,0,1-3-3v-3a3,3,0,0,0-3-3h-3a3,3,0,0,0-3,3v3a3,3,0,0,1-3,3h-32a3,3,0,0,1-3-3v-3a3,3,0,0,0-3-3h-4a3,3,0,0,1-3-3v-75a3,3,0,0,1,3-3h3a3,3,0,0,0,3-3v-3a3,3,0,0,0-3-3h-3a3,3,0,0,1-3-3v-74a6,6,0,0,1,6-6h57a3,3,0,0,1,3,3v4a3,3,0,0,0,3,3h3a3,3,0,0,1,3,3v3a3,3,0,0,0,3,3h3a3,3,0,0,0,3-3v-13a3,3,0,0,1,3-3h30a3,3,0,0,1,3,3v4a3,3,0,0,0,3,3h3a3,3,0,0,0,3-3v-4a3,3,0,0,1,3-3h192a3,3,0,0,1,3,3v4a3,3,0,0,0,3,3h3a3,3,0,0,0,3-3v-4a3,3,0,0,1,3-3h30a3,3,0,0,1,3,3v4a3,3,0,0,0,3,3h3a3,3,0,0,0,3-3v-4a3,3,0,0,1,3-3h93a3,3,0,0,1,3,3v4a3,3,0,0,0,3,3h3a3,3,0,0,1,3,3v22a3,3,0,0,1-3,3h-12a3,3,0,0,0-3,3v48a3,3,0,0,0,3,3h3a3,3,0,0,1,3,3v3a3,3,0,0,0,3,3h3a3,3,0,0,0,3-3v-3a3,3,0,0,1,3-3h30a3,3,0,0,1,3,3v3a3,3,0,0,0,3,3h3a3,3,0,0,0,3-3v-3a3,3,0,0,1,3-3h57a3,3,0,0,1,3,3v3a3,3,0,0,0,3,3h3a3,3,0,0,1,3,3v3a3,3,0,0,0,3,3h3A3,3,0,0,1,963.18,187.31Z"/><path id="Horizons" class="cls-1" d="M927.18,190.31v-3a3,3,0,0,0-3-3h-21a3,3,0,0,0-3,3v12a3,3,0,0,0,3,3h30a3,3,0,0,1,3,3v3a3,3,0,0,0,3,3h3a3,3,0,0,1,3,3v12a3,3,0,0,1-3,3h-3a3,3,0,0,0-3,3v3a3,3,0,0,1-3,3h-39a3,3,0,0,1-3-3v-3a3,3,0,0,0-3-3h-3a3,3,0,0,1-3-3v-3a3,3,0,0,1,3-3h12a3,3,0,0,1,3,3v3a3,3,0,0,0,3,3h21a3,3,0,0,0,3-3v-12a3,3,0,0,0-3-3h-30a3,3,0,0,1-3-3v-3a3,3,0,0,0-3-3h-3a3,3,0,0,1-3-3v-12a3,3,0,0,1,3-3h3a3,3,0,0,0,3-3v-3a3,3,0,0,1,3-3h39a3,3,0,0,1,3,3v3a3,3,0,0,0,3,3h3a3,3,0,0,1,3,3v3a3,3,0,0,1-3,3h-12A3,3,0,0,1,927.18,190.31Zm-66-15h-12a3,3,0,0,0-3,3v21a3,3,0,0,1-3,3h-3a3,3,0,0,1-3-3v-3a3,3,0,0,0-3-3h-3a3,3,0,0,1-3-3v-3a3,3,0,0,0-3-3h-3a3,3,0,0,1-3-3v-3a3,3,0,0,0-3-3h-12a3,3,0,0,0-3,3v57a3,3,0,0,0,3,3h12a3,3,0,0,0,3-3v-30a3,3,0,0,1,3-3h3a3,3,0,0,1,3,3v3a3,3,0,0,0,3,3h3a3,3,0,0,1,3,3v3a3,3,0,0,0,3,3h3a3,3,0,0,1,3,3v12a3,3,0,0,0,3,3h12a3,3,0,0,0,3-3v-57A3,3,0,0,0,861.18,175.31Zm-84,9h3a3,3,0,0,1,3,3v39a3,3,0,0,1-3,3h-3a3,3,0,0,0-3,3v3a3,3,0,0,1-3,3h-39a3,3,0,0,1-3-3v-3a3,3,0,0,0-3-3h-3a3,3,0,0,1-3-3v-39a3,3,0,0,1,3-3h3a3,3,0,0,0,3-3v-3a3,3,0,0,1,3-3h39a3,3,0,0,1,3,3v3A3,3,0,0,0,777.18,184.31Zm-36,45h21a3,3,0,0,0,3-3v-39a3,3,0,0,0-3-3h-21a3,3,0,0,0-3,3v39A3,3,0,0,0,741.18,229.31Zm-42-54h-57a3,3,0,0,0-3,3v3a3,3,0,0,0,3,3h30a3,3,0,0,1,3,3v3a3,3,0,0,1-3,3h-3a3,3,0,0,0-3,3v3a3,3,0,0,1-3,3h-3a3,3,0,0,0-3,3v3a3,3,0,0,1-3,3h-3a3,3,0,0,0-3,3v3a3,3,0,0,1-3,3h-3a3,3,0,0,0-3,3v12a3,3,0,0,0,3,3h57a3,3,0,0,0,3-3v-3a3,3,0,0,0-3-3h-30a3,3,0,0,1-3-3v-3a3,3,0,0,1,3-3h3a3,3,0,0,0,3-3v-3a3,3,0,0,1,3-3h3a3,3,0,0,0,3-3v-3a3,3,0,0,1,3-3h3a3,3,0,0,0,3-3v-3a3,3,0,0,1,3-3h3a3,3,0,0,0,3-3v-12A3,3,0,0,0,699.18,175.31Zm-78,60v-57a3,3,0,0,0-3-3h-12a3,3,0,0,0-3,3v57a3,3,0,0,0,3,3h12A3,3,0,0,0,621.18,235.31Zm-39-33h-3a3,3,0,0,0-3,3v3a3,3,0,0,0,3,3h3a3,3,0,0,1,3,3v21a3,3,0,0,1-3,3h-12a3,3,0,0,1-3-3v-21a3,3,0,0,0-3-3h-21a3,3,0,0,0-3,3v21a3,3,0,0,1-3,3h-12a3,3,0,0,1-3-3v-57a3,3,0,0,1,3-3h48a3,3,0,0,1,3,3v3a3,3,0,0,0,3,3h3a3,3,0,0,1,3,3v12A3,3,0,0,1,582.18,202.31Zm-15-3v-12a3,3,0,0,0-3-3h-21a3,3,0,0,0-3,3v12a3,3,0,0,0,3,3h21A3,3,0,0,0,567.18,199.31Zm-69-15h3a3,3,0,0,1,3,3v39a3,3,0,0,1-3,3h-3a3,3,0,0,0-3,3v3a3,3,0,0,1-3,3h-39a3,3,0,0,1-3-3v-3a3,3,0,0,0-3-3h-3a3,3,0,0,1-3-3v-39a3,3,0,0,1,3-3h3a3,3,0,0,0,3-3v-3a3,3,0,0,1,3-3h39a3,3,0,0,1,3,3v3A3,3,0,0,0,498.18,184.31Zm-12,42v-39a3,3,0,0,0-3-3h-21a3,3,0,0,0-3,3v39a3,3,0,0,0,3,3h21A3,3,0,0,0,486.18,226.31Zm-66-51h-12a3,3,0,0,0-3,3v21a3,3,0,0,1-3,3h-21a3,3,0,0,1-3-3v-21a3,3,0,0,0-3-3h-12a3,3,0,0,0-3,3v57a3,3,0,0,0,3,3h12a3,3,0,0,0,3-3v-21a3,3,0,0,1,3-3h21a3,3,0,0,1,3,3v21a3,3,0,0,0,3,3h12a3,3,0,0,0,3-3v-57A3,3,0,0,0,420.18,175.31Z"/><g id="Distant"><path class="cls-2" d="M819.18,88.31v3a3,3,0,0,1-3,3h-12a3,3,0,0,0-3,3v48a3,3,0,0,1-3,3h-12a3,3,0,0,1-3-3v-48a3,3,0,0,0-3-3h-12a3,3,0,0,1-3-3v-3a3,3,0,0,1,3-3h48A3,3,0,0,1,819.18,88.31Zm-66-3h-12a3,3,0,0,0-3,3v21a3,3,0,0,1-3,3h-3a3,3,0,0,1-3-3v-3a3,3,0,0,0-3-3h-3a3,3,0,0,1-3-3v-3a3,3,0,0,0-3-3h-3a3,3,0,0,1-3-3v-3a3,3,0,0,0-3-3h-12a3,3,0,0,0-3,3v57a3,3,0,0,0,3,3h12a3,3,0,0,0,3-3v-30a3,3,0,0,1,3-3h3a3,3,0,0,1,3,3v3a3,3,0,0,0,3,3h3a3,3,0,0,1,3,3v3a3,3,0,0,0,3,3h3a3,3,0,0,1,3,3v12a3,3,0,0,0,3,3h12a3,3,0,0,0,3-3v-57A3,3,0,0,0,753.18,85.31Zm-84,12h3a3,3,0,0,1,3,3v45a3,3,0,0,1-3,3h-12a3,3,0,0,1-3-3v-12a3,3,0,0,0-3-3h-21a3,3,0,0,0-3,3v12a3,3,0,0,1-3,3h-12a3,3,0,0,1-3-3v-45a3,3,0,0,1,3-3h3a3,3,0,0,0,3-3v-6a3,3,0,0,1,3-3h39a3,3,0,0,1,3,3v6A3,3,0,0,0,669.18,97.31Zm-12,21v-21a3,3,0,0,0-3-3h-21a3,3,0,0,0-3,3v21a3,3,0,0,0,3,3h21A3,3,0,0,0,657.18,118.31Zm-57-33h-48a3,3,0,0,0-3,3v3a3,3,0,0,0,3,3h12a3,3,0,0,1,3,3v48a3,3,0,0,0,3,3h12a3,3,0,0,0,3-3v-48a3,3,0,0,1,3-3h12a3,3,0,0,0,3-3v-3A3,3,0,0,0,600.18,85.31Zm-75,18h12a3,3,0,0,0,3-3v-3a3,3,0,0,0-3-3h-3a3,3,0,0,1-3-3v-3a3,3,0,0,0-3-3h-39a3,3,0,0,0-3,3v3a3,3,0,0,1-3,3h-3a3,3,0,0,0-3,3v12a3,3,0,0,0,3,3h3a3,3,0,0,1,3,3v3a3,3,0,0,0,3,3h30a3,3,0,0,1,3,3v12a3,3,0,0,1-3,3h-21a3,3,0,0,1-3-3v-3a3,3,0,0,0-3-3h-12a3,3,0,0,0-3,3v3a3,3,0,0,0,3,3h3a3,3,0,0,1,3,3v3a3,3,0,0,0,3,3h39a3,3,0,0,0,3-3v-3a3,3,0,0,1,3-3h3a3,3,0,0,0,3-3v-12a3,3,0,0,0-3-3h-3a3,3,0,0,1-3-3v-3a3,3,0,0,0-3-3h-30a3,3,0,0,1-3-3v-12a3,3,0,0,1,3-3h21a3,3,0,0,1,3,3v3A3,3,0,0,0,525.18,103.31Zm-66,42v-57a3,3,0,0,0-3-3h-12a3,3,0,0,0-3,3v57a3,3,0,0,0,3,3h12A3,3,0,0,0,459.18,145.31Zm-42-42h3a3,3,0,0,1,3,3v21a3,3,0,0,1-3,3h-3a3,3,0,0,0-3,3v3a3,3,0,0,1-3,3h-3a3,3,0,0,0-3,3v3a3,3,0,0,1-3,3h-39a3,3,0,0,1-3-3v-57a3,3,0,0,1,3-3h39a3,3,0,0,1,3,3v3a3,3,0,0,0,3,3h3a3,3,0,0,1,3,3v3A3,3,0,0,0,417.18,103.31Zm-18,27h5a3,3,0,0,0,3-3v-21a3,3,0,0,0-3-3h-5a3,3,0,0,1-3-3v-3a3,3,0,0,0-3-3h-12a3,3,0,0,0-3,3v39a3,3,0,0,0,3,3h12a3,3,0,0,0,3-3v-3A3,3,0,0,1,399.18,130.31Z"/></g></g><path id="Outline-2" data-name="Outline" d="M153.72,322.45l123.71-71.93A15.22,15.22,0,0,0,285,237.36V92.84a22.32,22.32,0,0,0-11.1-19.29L151.68,2.47a18.31,18.31,0,0,0-18.36,0L11.1,73.55A22.32,22.32,0,0,0,0,92.84V237.35A15.2,15.2,0,0,0,7.57,250.5l123.71,71.94A22.31,22.31,0,0,0,153.72,322.45Z"/><path id="Right_Path_" data-name="Right &lt;Path&gt;" class="cls-1" d="M203,220.44v51.61a8,8,0,0,1-4,6.93l-44,25.39a4,4,0,0,1-6-3.46v-51.6a8,8,0,0,1,4-6.92L197,217A4,4,0,0,1,203,220.44Z"/><path id="Right_Path_2" data-name="Right &lt;Path&gt;" class="cls-1" d="M149,210.36v12.73a4,4,0,0,0,6,3.46l44-25.39a8,8,0,0,0,4-6.93V181.49a4,4,0,0,0-6-3.46l-44,25.4A8,8,0,0,0,149,210.36Z"/><path id="Right_Path_3" data-name="Right &lt;Path&gt;" class="cls-1" d="M222,265.69l45-26a8,8,0,0,0,4-6.93V103.26a4,4,0,0,0-6-3.46l-45,26a8,8,0,0,0-4,6.93V262.23A4,4,0,0,0,222,265.69Z"/><path id="Left_Path_" data-name="Left &lt;Path&gt;" class="cls-3" d="M136,210.36v12.73a4,4,0,0,1-6,3.46l-11-6.34a8,8,0,0,1-4-6.93V200.54a4,4,0,0,1,6-3.46l11,6.35A8,8,0,0,1,136,210.36Z"/><path id="Left_Path_2" data-name="Left &lt;Path&gt;" class="cls-3" d="M132,242.42,20,177.76a4,4,0,0,0-6,3.46v51.57a8,8,0,0,0,4,6.93l112,64.65a4,4,0,0,0,6-3.46V249.35A8,8,0,0,0,132,242.42Z"/><g id="_Path_" data-name="&lt;Path&gt;"><path class="cls-2" d="M136,171.39v12.73a4,4,0,0,1-6,3.46l-11-6.35a8,8,0,0,1-4-6.93V161.57a4,4,0,0,1,6-3.46l11,6.35A8,8,0,0,1,136,171.39Z"/></g><g id="_Path_2" data-name="&lt;Path&gt;"><path class="cls-4" d="M99,145.41l-11-6.35a4,4,0,0,0-6,3.46v51.71a8,8,0,0,0,4,6.93l11,6.34a4,4,0,0,0,6-3.46v-51.7A8,8,0,0,0,99,145.41Z"/></g><g id="_Path_3" data-name="&lt;Path&gt;"><path class="cls-4" d="M14,103.26V155a8,8,0,0,0,4,6.93l45,26a4,4,0,0,0,6-3.46v-51.7a8,8,0,0,0-4-6.93l-45-26A4,4,0,0,0,14,103.26Z"/></g><g id="_Path_4" data-name="&lt;Path&gt;"><path class="cls-2" d="M149,184.12V171.39a8,8,0,0,1,4-6.93l11-6.35a4,4,0,0,1,6,3.46V174.3a8,8,0,0,1-4,6.93l-11,6.35A4,4,0,0,1,149,184.12Z"/></g><g id="_Path_5" data-name="&lt;Path&gt;"><path class="cls-4" d="M188,168.53l11-6.35a8,8,0,0,0,4-6.93V142.52a4,4,0,0,0-6-3.47l-11,6.36a8,8,0,0,0-4,6.93v12.72A4,4,0,0,0,188,168.53Z"/></g><g id="_Path_6" data-name="&lt;Path&gt;"><path class="cls-4" d="M258.92,88.65l-44.73,25.82a8,8,0,0,1-8,0L146.5,80a8,8,0,0,0-8,0L78.8,114.47a8,8,0,0,1-8,0L26.08,88.65a4,4,0,0,1,0-6.93L138.5,16.82a8,8,0,0,1,8,0l112.42,64.9A4,4,0,0,1,258.92,88.65Z"/></g><g id="_Path_7" data-name="&lt;Path&gt;"><path class="cls-4" d="M138.5,94.74l-11,6.35a4,4,0,0,0,0,6.92l44.94,26a8,8,0,0,0,8,0l11-6.35a4,4,0,0,0,0-6.93L146.5,94.74A8,8,0,0,0,138.5,94.74Z"/></g><g id="_Path_8" data-name="&lt;Path&gt;"><path class="cls-4" d="M112.76,134.08,124,127.61a4,4,0,0,0,0-6.93l-11.19-6.46a8,8,0,0,0-8,0l-11.2,6.46a4,4,0,0,0,0,6.93l11.2,6.47A8,8,0,0,0,112.76,134.08Z"/></g><g id="_Path_9" data-name="&lt;Path&gt;"><path class="cls-2" d="M146.5,153.56l11.19-6.47a4,4,0,0,0,0-6.93L146.5,133.7a8,8,0,0,0-8,0l-11.19,6.46a4,4,0,0,0,0,6.93l11.19,6.47A8,8,0,0,0,146.5,153.56Z"/></g></symbol></defs><g id="Layer_2" data-name="Layer 2"><g id="Logo_RGB_White" data-name="Logo RGB White"><use width="963.18" height="325.47" xlink:href="#DH_Logo_RGB_W"/></g></g></svg>