<?xml version="1.0" encoding="UTF-8"?>
<svg id="Layer_2" xmlns="http://www.w3.org/2000/svg" viewBox="0 0 2975.95 1023">
  <defs>
    <style>
      .cls-1 {
        fill: #fff;
      }

      .cls-2 {
        fill: #e8c58e;
      }

      .cls-3 {
        fill: #3083d6;
      }

      .cls-4 {
        fill: #3eaf3e;
      }
    </style>
  </defs>
  <g id="Layer_16">
    <g>
      <path id="Outline" d="M488.21,1012.7l382.54-220.96c17.82-10.29,28.8-29.31,28.8-49.9v-446.69c0-27.45-14.64-52.81-38.41-66.53L478.59,7.72c-17.83-10.3-39.8-10.3-57.63,0L38.41,228.62C14.64,242.35,0,267.71,0,295.15v446.64c0,20.58,10.98,39.6,28.8,49.89l382.55,221.01c23.78,13.74,53.08,13.74,76.86,0Z"/>
      <g>
        <path class="cls-4" d="M678.66,659.16v175.44c0,12.32,13.34,20.02,24.01,13.86l152.06-87.75c7.93-4.57,12.81-13.03,12.81-22.18v-175.46c0-12.32-13.34-20.02-24.01-13.86l-152.06,87.78c-7.92,4.57-12.81,13.03-12.81,22.18Z"/>
        <path id="_x3C_Path_x3E_" class="cls-1" d="M464.18,534.03v44.44c0,14.79,16.01,24.03,28.81,16.63l38.41-22.18c7.92-4.57,12.8-13.03,12.8-22.18v-44.44c0-14.79-16.01-24.03-28.81-16.63l-38.41,22.18c-7.92,4.57-12.8,13.03-12.8,22.18Z"/>
        <path id="_x3C_Path_x3E_-2" data-name="_x3C_Path_x3E_" class="cls-3" d="M289.27,403.13l39.04,22.54c7.92,4.57,17.69,4.57,25.61,0l39.04-22.54c12.8-7.39,12.8-25.88,0-33.27l-39.04-22.54c-7.92-4.57-17.69-4.57-25.61,0l-39.04,22.54c-12.8,7.39-12.8,25.88,0,33.27Z"/>
        <path id="_x3C_Path_x3E_-3" data-name="_x3C_Path_x3E_" class="cls-1" d="M387.68,459.95l48.64,28.08c7.92,4.57,17.69,4.57,25.61,0l48.64-28.08c8.54-4.93,8.54-17.25,0-22.18l-48.64-28.08c-7.92-4.57-17.69-4.57-25.61,0l-48.64,28.08c-8.54,4.93-8.54,17.25,0,22.18Z"/>
      </g>
      <path id="Left__x3C_Path_x3E_" class="cls-2" d="M368.15,697.7l38.41,22.17c12.8,7.39,28.81-1.85,28.81-16.64v-44.46c0-9.15-4.88-17.61-12.81-22.18l-38.41-22.17c-12.8-7.39-28.81,1.85-28.81,16.64v44.46c0,9.15,4.88,17.61,12.81,22.18Z"/>
      <path class="cls-2" d="M44.82,760.13l147.26,85.01c12.8,7.39,28.81-1.85,28.81-16.63v-168.73c0-9.15-4.88-17.6-12.81-22.18l-147.26-85.01c-12.8-7.39-28.81,1.85-28.81,16.63v168.73c0,9.15,4.88,17.6,12.81,22.18Z"/>
      <path class="cls-2" d="M262.5,885.81l144.06,83.15c12.8,7.39,28.81-1.85,28.81-16.64v-168.73c0-9.15-4.88-17.6-12.8-22.18l-144.06-83.18c-12.8-7.39-28.81,1.85-28.81,16.63v168.76c0,9.15,4.88,17.61,12.81,22.18Z"/>
      <path id="_x3C_Path_x3E_-4" data-name="_x3C_Path_x3E_" class="cls-1" d="M368.14,572.91l38.42,22.19c12.8,7.4,28.81-1.84,28.81-16.63v-44.45c0-9.15-4.88-17.61-12.81-22.18l-38.41-22.17c-12.8-7.39-28.81,1.85-28.81,16.64v44.43c0,9.15,4.88,17.6,12.8,22.18Z"/>
      <path class="cls-3" d="M262.5,636.72l38.41,22.17c12.8,7.39,28.81-1.85,28.81-16.64v-169.22c0-9.15-4.88-17.6-12.8-22.18l-38.42-22.19c-12.8-7.4-28.81,1.84-28.81,16.63v169.23c0,9.15,4.88,17.61,12.81,22.18Z"/>
      <path id="_x3C_Path_x3E_-5" data-name="_x3C_Path_x3E_" class="cls-3" d="M569.82,473.04v44.44c0,14.79,16.01,24.03,28.81,16.63l38.41-22.18c7.92-4.57,12.8-13.02,12.8-22.17l.02-44.45c0-14.79-16-24.04-28.81-16.64l-38.43,22.19c-7.92,4.57-12.8,13.03-12.8,22.18Z"/>
      <path id="_x3C_Path_x3E_-6" data-name="_x3C_Path_x3E_" class="cls-3" d="M397.94,340.39l147.05,84.9c7.92,4.57,17.69,4.57,25.61,0l38.38-22.16c12.8-7.39,12.8-25.88,0-33.27l-147.05-84.9c-7.92-4.57-17.69-4.57-25.61,0l-38.38,22.16c-12.8,7.39-12.81,25.88,0,33.27Z"/>
      <path class="cls-3" d="M289.91,153.31l146.42,84.5c7.92,4.57,17.68,4.57,25.61,0l146.4-84.53c12.8-7.39,12.8-25.87,0-33.27l-146.39-84.52c-7.92-4.58-17.69-4.58-25.61,0l-146.42,84.55c-12.81,7.39-12.8,25.88,0,33.27Z"/>
      <path class="cls-3" d="M506.01,278l147.01,84.91c7.92,4.58,17.69,4.58,25.61,0l146.39-84.52c12.8-7.39,12.8-25.87,0-33.27l-147.03-84.91c-7.92-4.58-17.69-4.58-25.61,0l-146.37,84.52c-12.8,7.39-12.8,25.87,0,33.27Z"/>
      <path class="cls-4" d="M678.66,410.2v169.21c0,14.78,16,24.03,28.81,16.64l147.26-84.98c7.93-4.57,12.81-13.03,12.81-22.18v-169.24c0-14.79-16.01-24.03-28.81-16.63l-147.26,85.01c-7.92,4.57-12.81,13.03-12.81,22.18Z"/>
      <path class="cls-4" d="M464.18,782.84v169.9c0,14.77,15.98,24.02,28.79,16.65l144.08-82.94c7.94-4.57,12.83-13.03,12.83-22.2v-169.9c0-14.77-15.98-24.02-28.79-16.65l-144.08,82.94c-7.94,4.57-12.83,13.03-12.83,22.2Z"/>
      <path id="Right__x3C_Path_x3E_" class="cls-4" d="M464.18,658.77v44.46c0,14.79,16,24.03,28.81,16.64l144.06-83.15c7.92-4.57,12.81-13.03,12.81-22.18v-44.46c0-14.79-16-24.03-28.81-16.64l-144.06,83.15c-7.92,4.57-12.81,13.03-12.81,22.18Z"/>
      <path class="cls-3" d="M73.24,278.38l146.39,84.52c7.93,4.58,17.69,4.58,25.61,0l147.01-84.91c12.8-7.39,12.8-25.88,0-33.27l-146.36-84.5c-7.92-4.57-17.68-4.57-25.61,0l-147.03,84.88c-12.81,7.39-12.81,25.88,0,33.27Z"/>
      <path class="cls-3" d="M44.82,511.04l147.26,85.01c12.8,7.39,28.81-1.85,28.81-16.63v-168.73c0-9.15-4.88-17.6-12.81-22.18l-147.26-85.01c-12.8-7.39-28.81,1.85-28.81,16.63v168.73c0,9.15,4.88,17.6,12.81,22.18Z"/>
    </g>
    <g>
      <path d="M1077.23,753.61h-7.51c-5.26,0-9.53-4.27-9.53-9.53v-225.93c0-5.26,4.27-9.53,9.53-9.53h2.86c5.26,0,9.53-4.27,9.53-9.53v-3.81c0-5.26-4.27-9.53-9.53-9.53h-2.86c-5.26,0-9.53-4.27-9.53-9.53v-225.77c0-5.26,4.27-9.53,9.53-9.53h172.35c5.26,0,9.53,4.27,9.53,9.53v12.35c0,5.26,4.27,9.53,9.53,9.53h9.24c5.26,0,9.53,4.27,9.53,9.53v9.21c0,5.26,4.27,9.53,9.53,9.53h18.74c5.26,0,9.53-4.27,9.53-9.53v-40.62c0-5.26,4.27-9.53,9.53-9.53h84.48c5.26,0,9.53,4.27,9.53,9.53v12.35c0,5.26,4.27,9.53,9.53,9.53h18.74c5.26,0,9.53-4.27,9.53-9.53v-12.35c0-5.26,4.27-9.53,9.53-9.53h593.33c5.26,0,9.53,4.27,9.53,9.53v12.35c0,5.26,4.27,9.53,9.53,9.53h18.74c5.26,0,9.53-4.27,9.53-9.53v-12.35c0-5.26,4.27-9.53,9.53-9.53h84.47c5.26,0,9.53,4.27,9.53,9.53v12.35c0,5.26,4.27,9.53,9.53,9.53h18.74c5.26,0,9.53-4.27,9.53-9.53v-12.35c0-5.26,4.27-9.53,9.53-9.53h282.39c5.26,0,9.53,4.27,9.53,9.53v12.35c0,5.26,4.27,9.53,9.53,9.53h9.21c5.26,0,9.53,4.27,9.53,9.53v59.36c0,5.26-4.27,9.53-9.53,9.53h-37.51c-5.26,0-9.53,4.27-9.53,9.53v131.82c0,5.26,4.27,9.53,9.53,9.53h9.24c5.26,0,9.53,4.27,9.53,9.53v9.21c0,5.26,4.27,9.53,9.53,9.53h18.74c5.26,0,9.53-4.27,9.53-9.53v-9.21c0-5.26,4.27-9.53,9.53-9.53h84.47c5.26,0,9.53,4.27,9.53,9.53v9.21c0,5.26,4.27,9.53,9.53,9.53h18.74c5.26,0,9.53-4.27,9.53-9.53v-9.21c0-5.26,4.27-9.53,9.53-9.53h169.3c5.26,0,9.53,4.27,9.53,9.53v9.21c0,5.26,4.27,9.53,9.53,9.53h9.21c5.26,0,9.53,4.27,9.53,9.53v9.21c0,5.26,4.27,9.53,9.53,9.53h9.21c5.26,0,9.53,4.27,9.53,9.53v181.04c0,5.26-4.27,9.53-9.53,9.53h-9.21c-5.26,0-9.53,4.27-9.53,9.53v8.86c0,5.26-4.27,9.53-9.53,9.53h-149.18c-5.26,0-9.53-4.27-9.53-9.53v-9.53c0-5.26-4.27-9.53-9.53-9.53h-22.23c-5.26,0-9.53,4.27-9.53,9.53v9.53c0,5.26-4.27,9.53-9.53,9.53h-82.57c-5.26,0-9.53-4.27-9.53-9.53v-9.53c0-5.26-4.27-9.53-9.53-9.53h-22.23c-5.26,0-9.53,4.27-9.53,9.53v9.53c0,5.26-4.27,9.53-9.53,9.53h-82.57c-5.26,0-9.53-4.27-9.53-9.53v-9.53c0-5.26-4.27-9.53-9.53-9.53h-22.23c-5.26,0-9.53,4.27-9.53,9.53v9.53c0,5.26-4.27,9.53-9.53,9.53h-168.32c-5.26,0-9.53-4.27-9.53-9.53v-9.53c0-5.26-4.27-9.53-9.53-9.53h-22.23c-5.26,0-9.53,4.27-9.53,9.53v9.53c0,5.26-4.27,9.53-9.53,9.53h-454.14c-5.26,0-9.53-4.27-9.53-9.53v-9.53c0-5.26-4.27-9.53-9.53-9.53h-22.23c-5.26,0-9.53,4.27-9.53,9.53v9.53c0,5.26-4.27,9.53-9.53,9.53h-82.57c-5.26,0-9.53-4.27-9.53-9.53v-9.53c0-5.26-4.27-9.53-9.53-9.53h-22.23c-5.26,0-9.53,4.27-9.53,9.53v9.53c0,5.26-4.27,9.53-9.53,9.53h-168.32c-5.26,0-9.53-4.27-9.53-9.53v-9.53c0-5.26-4.27-9.53-9.53-9.53h-22.23c-5.26,0-9.53,4.27-9.53,9.53v9.53c0,5.26-4.27,9.53-9.53,9.53h-82.57c-5.26,0-9.53-4.27-9.53-9.53v-9.53c0-5.26-4.27-9.53-9.53-9.53h-22.23c-5.26,0-9.53,4.27-9.53,9.53v9.55c0,5.25-4.25,9.52-9.51,9.53l-88.93.2c-5.27.01-9.55-4.26-9.55-9.53v-13.74c0-5.26-4.27-9.53-9.53-9.53Z"/>
      <path id="Horizons" class="cls-4" d="M2867.64,572.31v-9.53c0-5.17-4.19-9.37-9.37-9.37h-66.07c-5.17,0-9.37,4.19-9.37,9.37v37.8c0,5.17,4.19,9.37,9.37,9.37h94.34c5.17,0,9.37,4.19,9.37,9.37v9.53c0,5.17,4.19,9.37,9.37,9.37h9.53c5.17,0,9.37,4.19,9.37,9.37v37.8c0,5.17-4.19,9.37-9.37,9.37h-9.53c-5.17,0-9.37,4.19-9.37,9.37v9.53c0,5.17-4.19,9.37-9.37,9.37h-122.6c-5.17,0-9.37-4.19-9.37-9.37v-9.53c0-5.17-4.19-9.37-9.37-9.37h-9.53c-5.17,0-9.37-4.19-9.37-9.37v-9.53c0-5.17,4.19-9.37,9.37-9.37h37.8c5.17,0,9.37,4.19,9.37,9.37v9.53c0,5.17,4.19,9.37,9.37,9.37h66.07c5.17,0,9.37-4.19,9.37-9.37v-37.8c0-5.17-4.19-9.37-9.37-9.37h-94.34c-5.17,0-9.37-4.19-9.37-9.37v-9.53c0-5.17-4.19-9.37-9.37-9.37h-9.53c-5.17,0-9.37-4.19-9.37-9.37v-37.8c0-5.17,4.19-9.37,9.37-9.37h9.53c5.17,0,9.37-4.19,9.37-9.37v-9.53c0-5.17,4.19-9.37,9.37-9.37h122.6c5.17,0,9.37,4.19,9.37,9.37v9.53c0,5.17,4.19,9.37,9.37,9.37h9.53c5.17,0,9.37,4.19,9.37,9.37v9.53c0,5.17-4.19,9.37-9.37,9.37h-37.8c-5.17,0-9.37-4.19-9.37-9.37ZM2660.4,525.15h-37.8c-5.17,0-9.37,4.19-9.37,9.37v66.07c0,5.17-4.19,9.37-9.37,9.37h-9.53c-5.17,0-9.37-4.19-9.37-9.37v-9.53c0-5.17-4.19-9.37-9.37-9.37h-9.53c-5.17,0-9.37-4.19-9.37-9.37v-9.53c0-5.17-4.19-9.37-9.37-9.37h-9.53c-5.17,0-9.37-4.19-9.37-9.37v-9.53c0-5.17-4.19-9.37-9.37-9.37h-37.8c-5.17,0-9.37,4.19-9.37,9.37v179.14c0,5.17,4.19,9.37,9.37,9.37h37.8c5.17,0,9.37-4.19,9.37-9.37v-94.34c0-5.17,4.19-9.37,9.37-9.37h9.53c5.17,0,9.37,4.19,9.37,9.37v9.53c0,5.17,4.19,9.37,9.37,9.37h9.53c5.17,0,9.37,4.19,9.37,9.37v9.53c0,5.17,4.19,9.37,9.37,9.37h9.53c5.17,0,9.37,4.19,9.37,9.37v37.8c0,5.17,4.19,9.37,9.37,9.37h37.8c5.17,0,9.37-4.19,9.37-9.37v-179.14c0-5.17-4.19-9.37-9.37-9.37ZM2396.46,553.41h9.53c5.17,0,9.37,4.19,9.37,9.37v122.6c0,5.17-4.19,9.37-9.37,9.37h-9.53c-5.17,0-9.37,4.19-9.37,9.37v9.53c0,5.17-4.19,9.37-9.37,9.37h-122.6c-5.17,0-9.37-4.19-9.37-9.37v-9.53c0-5.17-4.19-9.37-9.37-9.37h-9.53c-5.17,0-9.37-4.19-9.37-9.37v-122.6c0-5.17,4.19-9.37,9.37-9.37h9.53c5.17,0,9.37-4.19,9.37-9.37v-9.53c0-5.17,4.19-9.37,9.37-9.37h122.6c5.17,0,9.37,4.19,9.37,9.37v9.53c0,5.17,4.19,9.37,9.37,9.37ZM2283.38,694.75h66.07c5.17,0,9.37-4.19,9.37-9.37v-122.6c0-5.17-4.19-9.37-9.37-9.37h-66.07c-5.17,0-9.37,4.19-9.37,9.37v122.6c0,5.17,4.19,9.37,9.37,9.37ZM2151.58,525.15h-179.14c-5.17,0-9.37,4.19-9.37,9.37v9.53c0,5.17,4.19,9.37,9.37,9.37h94.34c5.17,0,9.37,4.19,9.37,9.37v9.53c0,5.17-4.19,9.37-9.37,9.37h-9.53c-5.17,0-9.37,4.19-9.37,9.37v9.53c0,5.17-4.19,9.37-9.37,9.37h-9.53c-5.17,0-9.37,4.19-9.37,9.37v9.53c0,5.17-4.19,9.37-9.37,9.37h-9.53c-5.17,0-9.37,4.19-9.37,9.37v9.53c0,5.17-4.19,9.37-9.37,9.37h-9.53c-5.17,0-9.37,4.19-9.37,9.37v37.8c0,5.17,4.19,9.37,9.37,9.37h179.14c5.17,0,9.37-4.19,9.37-9.37v-9.53c0-5.17-4.19-9.37-9.37-9.37h-94.34c-5.17,0-9.37-4.19-9.37-9.37v-9.53c0-5.17,4.19-9.37,9.37-9.37h9.53c5.17,0,9.37-4.19,9.37-9.37v-9.53c0-5.17,4.19-9.37,9.37-9.37h9.53c5.17,0,9.37-4.19,9.37-9.37v-9.53c0-5.17,4.19-9.37,9.37-9.37h9.53c5.17,0,9.37-4.19,9.37-9.37v-9.53c0-5.17,4.19-9.37,9.37-9.37h9.53c5.17,0,9.37-4.19,9.37-9.37v-37.8c0-5.17-4.19-9.37-9.37-9.37ZM1906.53,713.65v-179.14c0-5.17-4.19-9.37-9.37-9.37h-37.8c-5.17,0-9.37,4.19-9.37,9.37v179.14c0,5.17,4.19,9.37,9.37,9.37h37.8c5.17,0,9.37-4.19,9.37-9.37ZM1784.09,609.95h-9.53c-5.17,0-9.37,4.19-9.37,9.37v9.53c0,5.17,4.19,9.37,9.37,9.37h9.53c5.17,0,9.37,4.19,9.37,9.37v66.07c0,5.17-4.19,9.37-9.37,9.37h-37.8c-5.17,0-9.37-4.19-9.37-9.37v-66.07c0-5.17-4.19-9.37-9.37-9.37h-66.07c-5.17,0-9.37,4.19-9.37,9.37v66.07c0,5.17-4.19,9.37-9.37,9.37h-37.8c-5.17,0-9.37-4.19-9.37-9.37v-179.14c0-5.17,4.19-9.37,9.37-9.37h150.87c5.17,0,9.37,4.19,9.37,9.37v9.53c0,5.17,4.19,9.37,9.37,9.37h9.53c5.17,0,9.37,4.19,9.37,9.37v37.8c0,5.17-4.19,9.37-9.37,9.37ZM1736.92,600.58v-37.8c0-5.17-4.19-9.37-9.37-9.37h-66.07c-5.17,0-9.37,4.19-9.37,9.37v37.8c0,5.17,4.19,9.37,9.37,9.37h66.07c5.17,0,9.37-4.19,9.37-9.37ZM1520.15,553.41h9.53c5.17,0,9.37,4.19,9.37,9.37v122.6c0,5.17-4.19,9.37-9.37,9.37h-9.53c-5.17,0-9.37,4.19-9.37,9.37v9.53c0,5.17-4.19,9.37-9.37,9.37h-122.6c-5.17,0-9.37-4.19-9.37-9.37v-9.53c0-5.17-4.19-9.37-9.37-9.37h-9.53c-5.17,0-9.37-4.19-9.37-9.37v-122.6c0-5.17,4.19-9.37,9.37-9.37h9.53c5.17,0,9.37-4.19,9.37-9.37v-9.53c0-5.17,4.19-9.37,9.37-9.37h122.6c5.17,0,9.37,4.19,9.37,9.37v9.53c0,5.17,4.19,9.37,9.37,9.37ZM1482.51,685.39v-122.6c0-5.17-4.19-9.37-9.37-9.37h-66.07c-5.17,0-9.37,4.19-9.37,9.37v122.6c0,5.17,4.19,9.37,9.37,9.37h66.07c5.17,0,9.37-4.19,9.37-9.37ZM1275.27,525.15h-37.8c-5.17,0-9.37,4.19-9.37,9.37v66.07c0,5.17-4.19,9.37-9.37,9.37h-66.07c-5.17,0-9.37-4.19-9.37-9.37v-66.07c0-5.17-4.19-9.37-9.37-9.37h-37.8c-5.17,0-9.37,4.19-9.37,9.37v179.14c0,5.17,4.19,9.37,9.37,9.37h37.8c5.17,0,9.37-4.19,9.37-9.37v-66.07c0-5.17,4.19-9.37,9.37-9.37h66.07c5.17,0,9.37,4.19,9.37,9.37v66.07c0,5.17,4.19,9.37,9.37,9.37h37.8c5.17,0,9.37-4.19,9.37-9.37v-179.14c0-5.17-4.19-9.37-9.37-9.37Z"/>
      <g id="Distant">
        <path class="cls-1" d="M2528.43,280.1v9.53c0,5.17-4.19,9.37-9.37,9.37h-37.8c-5.17,0-9.37,4.19-9.37,9.37v150.87c0,5.17-4.19,9.37-9.37,9.37h-37.8c-5.17,0-9.37-4.19-9.37-9.37v-150.87c0-5.17-4.19-9.37-9.37-9.37h-37.8c-5.17,0-9.37-4.19-9.37-9.37v-9.53c0-5.17,4.19-9.37,9.37-9.37h150.87c5.17,0,9.37,4.19,9.37,9.37ZM2321.18,270.73h-37.8c-5.17,0-9.37,4.19-9.37,9.37v66.07c0,5.17-4.19,9.37-9.37,9.37h-9.53c-5.17,0-9.37-4.19-9.37-9.37v-9.53c0-5.17-4.19-9.37-9.37-9.37h-9.53c-5.17,0-9.37-4.19-9.37-9.37v-9.53c0-5.17-4.19-9.37-9.37-9.37h-9.53c-5.17,0-9.37-4.19-9.37-9.37v-9.53c0-5.17-4.19-9.37-9.37-9.37h-37.8c-5.17,0-9.37,4.19-9.37,9.37v179.14c0,5.17,4.19,9.37,9.37,9.37h37.8c5.17,0,9.37-4.19,9.37-9.37v-94.34c0-5.17,4.19-9.37,9.37-9.37h9.53c5.17,0,9.37,4.19,9.37,9.37v9.53c0,5.17,4.19,9.37,9.37,9.37h9.53c5.17,0,9.37,4.19,9.37,9.37v9.53c0,5.17,4.19,9.37,9.37,9.37h9.53c5.17,0,9.37,4.19,9.37,9.37v37.8c0,5.17,4.19,9.37,9.37,9.37h37.8c5.17,0,9.37-4.19,9.37-9.37v-179.14c0-5.17-4.19-9.37-9.37-9.37ZM2057.24,308.42h9.53c5.17,0,9.37,4.19,9.37,9.37v141.45c0,5.17-4.19,9.37-9.37,9.37h-37.8c-5.17,0-9.37-4.19-9.37-9.37v-37.8c0-5.17-4.19-9.37-9.37-9.37h-66.07c-5.17,0-9.37,4.19-9.37,9.37v37.8c0,5.17-4.19,9.37-9.37,9.37h-37.8c-5.17,0-9.37-4.19-9.37-9.37v-141.45c0-5.17,4.19-9.37,9.37-9.37h9.53c5.17,0,9.37-4.19,9.37-9.37v-18.95c0-5.17,4.19-9.37,9.37-9.37h122.6c5.17,0,9.37,4.19,9.37,9.37v18.95c0,5.17,4.19,9.37,9.37,9.37ZM2019.6,374.44v-66.07c0-5.17-4.19-9.37-9.37-9.37h-66.07c-5.17,0-9.37,4.19-9.37,9.37v66.07c0,5.17,4.19,9.37,9.37,9.37h66.07c5.17,0,9.37-4.19,9.37-9.37ZM1840.63,270.73h-150.87c-5.17,0-9.37,4.19-9.37,9.37v9.53c0,5.17,4.19,9.37,9.37,9.37h37.8c5.17,0,9.37,4.19,9.37,9.37v150.87c0,5.17,4.19,9.37,9.37,9.37h37.8c5.17,0,9.37-4.19,9.37-9.37v-150.87c0-5.17,4.19-9.37,9.37-9.37h37.8c5.17,0,9.37-4.19,9.37-9.37v-9.53c0-5.17-4.19-9.37-9.37-9.37ZM1604.95,327.27h37.8c5.17,0,9.37-4.19,9.37-9.37v-9.53c0-5.17-4.19-9.37-9.37-9.37h-9.53c-5.17,0-9.37-4.19-9.37-9.37v-9.53c0-5.17-4.19-9.37-9.37-9.37h-122.6c-5.17,0-9.37,4.19-9.37,9.37v9.53c0,5.17-4.19,9.37-9.37,9.37h-9.53c-5.17,0-9.37,4.19-9.37,9.37v37.8c0,5.17,4.19,9.37,9.37,9.37h9.53c5.17,0,9.37,4.19,9.37,9.37v9.53c0,5.17,4.19,9.37,9.37,9.37h94.34c5.17,0,9.37,4.19,9.37,9.37v37.8c0,5.17-4.19,9.37-9.37,9.37h-66.07c-5.17,0-9.37-4.19-9.37-9.37v-9.53c0-5.17-4.19-9.37-9.37-9.37h-37.8c-5.17,0-9.37,4.19-9.37,9.37v9.53c0,5.17,4.19,9.37,9.37,9.37h9.53c5.17,0,9.37,4.19,9.37,9.37v9.53c0,5.17,4.19,9.37,9.37,9.37h122.6c5.17,0,9.37-4.19,9.37-9.37v-9.53c0-5.17,4.19-9.37,9.37-9.37h9.53c5.17,0,9.37-4.19,9.37-9.37v-37.8c0-5.17-4.19-9.37-9.37-9.37h-9.53c-5.17,0-9.37-4.19-9.37-9.37v-9.53c0-5.17-4.19-9.37-9.37-9.37h-94.34c-5.17,0-9.37-4.19-9.37-9.37v-37.8c0-5.17,4.19-9.37,9.37-9.37h66.07c5.17,0,9.37,4.19,9.37,9.37v9.53c0,5.17,4.19,9.37,9.37,9.37ZM1397.71,459.24v-179.14c0-5.17-4.19-9.37-9.37-9.37h-37.8c-5.17,0-9.37,4.19-9.37,9.37v179.14c0,5.17,4.19,9.37,9.37,9.37h37.8c5.17,0,9.37-4.19,9.37-9.37ZM1265.74,327.27h9.53c5.17,0,9.37,4.19,9.37,9.37v66.07c0,5.17-4.19,9.37-9.37,9.37h-9.53c-5.17,0-9.37,4.19-9.37,9.37v9.53c0,5.17-4.19,9.37-9.37,9.37h-9.53c-5.17,0-9.37,4.19-9.37,9.37v9.53c0,5.17-4.19,9.37-9.37,9.37h-122.6c-5.17,0-9.37-4.19-9.37-9.37v-179.14c0-5.17,4.19-9.37,9.37-9.37h122.6c5.17,0,9.37,4.19,9.37,9.37v9.53c0,5.17,4.19,9.37,9.37,9.37h9.53c5.17,0,9.37,4.19,9.37,9.37v9.53c0,5.17,4.19,9.37,9.37,9.37ZM1209.2,412.07h15.81c5.17,0,9.37-4.19,9.37-9.37v-66.07c0-5.17-4.19-9.37-9.37-9.37h-15.81c-5.17,0-9.37-4.19-9.37-9.37v-9.53c0-5.17-4.19-9.37-9.37-9.37h-37.8c-5.17,0-9.37,4.19-9.37,9.37v122.6c0,5.17,4.19,9.37,9.37,9.37h37.8c5.17,0,9.37-4.19,9.37-9.37v-9.53c0-5.17,4.19-9.37,9.37-9.37Z"/>
      </g>
    </g>
  </g>
</svg>