<svg xmlns="http://www.w3.org/2000/svg" viewBox="0 0 984.5 359.13"><defs><style>.cls-1{fill:#7ec138;}.cls-2{fill:#fff;}.cls-3{fill:#12af68;}</style></defs><g id="Layer_2" data-name="Layer 2"><g id="Logo_RGB_White" data-name="Logo RGB White"><path id="Outline" d="M175.21,356.1l123.72-71.92A15.22,15.22,0,0,0,306.5,271V126.5a22.32,22.32,0,0,0-11.1-19.29L173.18,36.13a18.26,18.26,0,0,0-18.36,0L32.59,107.21A22.31,22.31,0,0,0,21.5,126.5V271a15.22,15.22,0,0,0,7.56,13.15L152.78,356.1A22.29,22.29,0,0,0,175.21,356.1Z"/><path d="M369.76,136a5.78,5.78,0,0,0-.26,1.72v-.53A2.8,2.8,0,0,1,369.76,136Z"/><path d="M984.5,155.21v57a3,3,0,0,1-3,3h-3a3,3,0,0,0-3,3v3a3,3,0,0,1-3,3h-57a3,3,0,0,1-3-3v-3a3,3,0,0,0-3-3h-3a3,3,0,0,0-3,3v3a3,3,0,0,1-3,3h-30a3,3,0,0,1-3-3v-3a3,3,0,0,0-3-3h-3a3,3,0,0,0-3,3v3a3,3,0,0,1-3,3h-30a3,3,0,0,1-3-3v-3a3,3,0,0,0-3-3h-3a3,3,0,0,0-3,3v3a3,3,0,0,1-3,3h-57a3,3,0,0,1-3-3v-3a3,3,0,0,0-3-3h-3a3,3,0,0,0-3,3v3a3,3,0,0,1-3,3h-147a3,3,0,0,1-3-3v-3a3,3,0,0,0-3-3h-3a3,3,0,0,0-3,3v3a3,3,0,0,1-3,3h-3a3,3,0,0,0-3,3v3a3,3,0,0,0,3,3h3a3,3,0,0,1,3,3v74.53a3,3,0,0,1-3,3h-39a3,3,0,0,1-3-3v-3a3,3,0,0,0-3-3h-3.28a3,3,0,0,1-3-3v-3a3,3,0,0,0-3-3H496.5a3,3,0,0,0-3,3v12a3,3,0,0,1-3,3h-64a3,3,0,0,1-3-3v-3a3,3,0,0,0-3-3h-3a3,3,0,0,0-3,3v3a3,3,0,0,1-3,3h-29a3,3,0,0,1-3-3v-3a3,3,0,0,0-3-3h-4a3,3,0,0,1-3-3v-63a3,3,0,0,1,3-3h3a3,3,0,0,0,3-3v-15a3,3,0,0,0-1.24-2.43,3,3,0,0,0-1.76-.57h-3a3,3,0,0,1-3-3v-74a5.78,5.78,0,0,1,.26-1.72,3,3,0,0,1,2.74-1.81h3a3,3,0,0,0,2.95-2.47,3.07,3.07,0,0,0,.05-.53v-3a3,3,0,0,0-3-3h-3a3,3,0,0,1-3-3v-74a6,6,0,0,1,6-6h57a3,3,0,0,1,3,3v4a3,3,0,0,0,3,3h3a3,3,0,0,1,3,3v3a3,3,0,0,0,3,3h3a3,3,0,0,0,3-3v-13a3,3,0,0,1,3-3h30a3,3,0,0,1,3,3v4a3,3,0,0,0,3,3h3a3,3,0,0,0,3-3v-4a3,3,0,0,1,3-3h192a3,3,0,0,1,3,3v4a3,3,0,0,0,3,3h3a3,3,0,0,0,3-3v-4a3,3,0,0,1,3-3h30a3,3,0,0,1,3,3v4a3,3,0,0,0,3,3h3a3,3,0,0,0,3-3v-4a3,3,0,0,1,3-3h93a3,3,0,0,1,3,3v4a3,3,0,0,0,3,3h3a3,3,0,0,1,3,3v22a3,3,0,0,1-3,3h-12a3,3,0,0,0-3,3v48a3,3,0,0,0,3,3h3a3,3,0,0,1,3,3v3a3,3,0,0,0,3,3h3a3,3,0,0,0,3-3v-3a3,3,0,0,1,3-3h30a3,3,0,0,1,3,3v3a3,3,0,0,0,3,3h3a3,3,0,0,0,3-3v-3a3,3,0,0,1,3-3h57a3,3,0,0,1,3,3v3a3,3,0,0,0,3,3h3a3,3,0,0,1,3,3v3a3,3,0,0,0,3,3h3A3,3,0,0,1,984.5,155.21Z"/><path id="Horizons" class="cls-1" d="M948.5,158.21v-3a3,3,0,0,0-3-3h-21a3,3,0,0,0-3,3v12a3,3,0,0,0,3,3h30a3,3,0,0,1,3,3v3a3,3,0,0,0,3,3h3a3,3,0,0,1,3,3v12a3,3,0,0,1-3,3h-3a3,3,0,0,0-3,3v3a3,3,0,0,1-3,3h-39a3,3,0,0,1-3-3v-3a3,3,0,0,0-3-3h-3a3,3,0,0,1-3-3v-3a3,3,0,0,1,3-3h12a3,3,0,0,1,3,3v3a3,3,0,0,0,3,3h21a3,3,0,0,0,3-3v-12a3,3,0,0,0-3-3h-30a3,3,0,0,1-3-3v-3a3,3,0,0,0-3-3h-3a3,3,0,0,1-3-3v-12a3,3,0,0,1,3-3h3a3,3,0,0,0,3-3v-3a3,3,0,0,1,3-3h39a3,3,0,0,1,3,3v3a3,3,0,0,0,3,3h3a3,3,0,0,1,3,3v3a3,3,0,0,1-3,3h-12A3,3,0,0,1,948.5,158.21Zm-66-15h-12a3,3,0,0,0-3,3v21a3,3,0,0,1-3,3h-3a3,3,0,0,1-3-3v-3a3,3,0,0,0-3-3h-3a3,3,0,0,1-3-3v-3a3,3,0,0,0-3-3h-3a3,3,0,0,1-3-3v-3a3,3,0,0,0-3-3h-12a3,3,0,0,0-3,3v57a3,3,0,0,0,3,3h12a3,3,0,0,0,3-3v-30a3,3,0,0,1,3-3h3a3,3,0,0,1,3,3v3a3,3,0,0,0,3,3h3a3,3,0,0,1,3,3v3a3,3,0,0,0,3,3h3a3,3,0,0,1,3,3v12a3,3,0,0,0,3,3h12a3,3,0,0,0,3-3v-57A3,3,0,0,0,882.5,143.21Zm-84,9h3a3,3,0,0,1,3,3v39a3,3,0,0,1-3,3h-3a3,3,0,0,0-3,3v3a3,3,0,0,1-3,3h-39a3,3,0,0,1-3-3v-3a3,3,0,0,0-3-3h-3a3,3,0,0,1-3-3v-39a3,3,0,0,1,3-3h3a3,3,0,0,0,3-3v-3a3,3,0,0,1,3-3h39a3,3,0,0,1,3,3v3A3,3,0,0,0,798.5,152.21Zm-36,45h21a3,3,0,0,0,3-3v-39a3,3,0,0,0-3-3h-21a3,3,0,0,0-3,3v39A3,3,0,0,0,762.5,197.21Zm-42-54h-57a3,3,0,0,0-3,3v3a3,3,0,0,0,3,3h30a3,3,0,0,1,3,3v3a3,3,0,0,1-3,3h-3a3,3,0,0,0-3,3v3a3,3,0,0,1-3,3h-3a3,3,0,0,0-3,3v3a3,3,0,0,1-3,3h-3a3,3,0,0,0-3,3v3a3,3,0,0,1-3,3h-3a3,3,0,0,0-3,3v12a3,3,0,0,0,3,3h57a3,3,0,0,0,3-3v-3a3,3,0,0,0-3-3h-30a3,3,0,0,1-3-3v-3a3,3,0,0,1,3-3h3a3,3,0,0,0,3-3v-3a3,3,0,0,1,3-3h3a3,3,0,0,0,3-3v-3a3,3,0,0,1,3-3h3a3,3,0,0,0,3-3v-3a3,3,0,0,1,3-3h3a3,3,0,0,0,3-3v-12A3,3,0,0,0,720.5,143.21Zm-78,60v-57a3,3,0,0,0-3-3h-12a3,3,0,0,0-3,3v57a3,3,0,0,0,3,3h12A3,3,0,0,0,642.5,203.21Zm-39-33h-3a3,3,0,0,0-3,3v3a3,3,0,0,0,3,3h3a3,3,0,0,1,3,3v21a3,3,0,0,1-3,3h-12a3,3,0,0,1-3-3v-21a3,3,0,0,0-3-3h-21a3,3,0,0,0-3,3v21a3,3,0,0,1-3,3h-12a3,3,0,0,1-3-3v-57a3,3,0,0,1,3-3h48a3,3,0,0,1,3,3v3a3,3,0,0,0,3,3h3a3,3,0,0,1,3,3v12A3,3,0,0,1,603.5,170.21Zm-15-3v-12a3,3,0,0,0-3-3h-21a3,3,0,0,0-3,3v12a3,3,0,0,0,3,3h21A3,3,0,0,0,588.5,167.21Zm-69-15h3a3,3,0,0,1,3,3v39a3,3,0,0,1-3,3h-3a3,3,0,0,0-3,3v3a3,3,0,0,1-3,3h-39a3,3,0,0,1-3-3v-3a3,3,0,0,0-3-3h-3a3,3,0,0,1-3-3v-39a3,3,0,0,1,3-3h3a3,3,0,0,0,3-3v-3a3,3,0,0,1,3-3h39a3,3,0,0,1,3,3v3A3,3,0,0,0,519.5,152.21Zm-12,42v-39a3,3,0,0,0-3-3h-21a3,3,0,0,0-3,3v39a3,3,0,0,0,3,3h21A3,3,0,0,0,507.5,194.21Zm-66-51h-12a3,3,0,0,0-3,3v21a3,3,0,0,1-3,3h-21a3,3,0,0,1-3-3v-21a3,3,0,0,0-3-3h-12a3,3,0,0,0-3,3v57a3,3,0,0,0,3,3h12a3,3,0,0,0,3-3v-21a3,3,0,0,1,3-3h21a3,3,0,0,1,3,3v21a3,3,0,0,0,3,3h12a3,3,0,0,0,3-3v-57A3,3,0,0,0,441.5,143.21Z"/><g id="Distant"><path class="cls-2" d="M840.5,56.21v3a3,3,0,0,1-3,3h-12a3,3,0,0,0-3,3v48a3,3,0,0,1-3,3h-12a3,3,0,0,1-3-3v-48a3,3,0,0,0-3-3h-12a3,3,0,0,1-3-3v-3a3,3,0,0,1,3-3h48A3,3,0,0,1,840.5,56.21Zm-66-3h-12a3,3,0,0,0-3,3v21a3,3,0,0,1-3,3h-3a3,3,0,0,1-3-3v-3a3,3,0,0,0-3-3h-3a3,3,0,0,1-3-3v-3a3,3,0,0,0-3-3h-3a3,3,0,0,1-3-3v-3a3,3,0,0,0-3-3h-12a3,3,0,0,0-3,3v57a3,3,0,0,0,3,3h12a3,3,0,0,0,3-3v-30a3,3,0,0,1,3-3h3a3,3,0,0,1,3,3v3a3,3,0,0,0,3,3h3a3,3,0,0,1,3,3v3a3,3,0,0,0,3,3h3a3,3,0,0,1,3,3v12a3,3,0,0,0,3,3h12a3,3,0,0,0,3-3v-57A3,3,0,0,0,774.5,53.21Zm-84,12h3a3,3,0,0,1,3,3v45a3,3,0,0,1-3,3h-12a3,3,0,0,1-3-3v-12a3,3,0,0,0-3-3h-21a3,3,0,0,0-3,3v12a3,3,0,0,1-3,3h-12a3,3,0,0,1-3-3v-45a3,3,0,0,1,3-3h3a3,3,0,0,0,3-3v-6a3,3,0,0,1,3-3h39a3,3,0,0,1,3,3v6A3,3,0,0,0,690.5,65.21Zm-12,21v-21a3,3,0,0,0-3-3h-21a3,3,0,0,0-3,3v21a3,3,0,0,0,3,3h21A3,3,0,0,0,678.5,86.21Zm-57-33h-48a3,3,0,0,0-3,3v3a3,3,0,0,0,3,3h12a3,3,0,0,1,3,3v48a3,3,0,0,0,3,3h12a3,3,0,0,0,3-3v-48a3,3,0,0,1,3-3h12a3,3,0,0,0,3-3v-3A3,3,0,0,0,621.5,53.21Zm-75,18h12a3,3,0,0,0,3-3v-3a3,3,0,0,0-3-3h-3a3,3,0,0,1-3-3v-3a3,3,0,0,0-3-3h-39a3,3,0,0,0-3,3v3a3,3,0,0,1-3,3h-3a3,3,0,0,0-3,3v12a3,3,0,0,0,3,3h3a3,3,0,0,1,3,3v3a3,3,0,0,0,3,3h30a3,3,0,0,1,3,3v12a3,3,0,0,1-3,3h-21a3,3,0,0,1-3-3v-3a3,3,0,0,0-3-3h-12a3,3,0,0,0-3,3v3a3,3,0,0,0,3,3h3a3,3,0,0,1,3,3v3a3,3,0,0,0,3,3h39a3,3,0,0,0,3-3v-3a3,3,0,0,1,3-3h3a3,3,0,0,0,3-3v-12a3,3,0,0,0-3-3h-3a3,3,0,0,1-3-3v-3a3,3,0,0,0-3-3h-30a3,3,0,0,1-3-3v-12a3,3,0,0,1,3-3h21a3,3,0,0,1,3,3v3A3,3,0,0,0,546.5,71.21Zm-66,42v-57a3,3,0,0,0-3-3h-12a3,3,0,0,0-3,3v57a3,3,0,0,0,3,3h12A3,3,0,0,0,480.5,113.21Zm-42-42h3a3,3,0,0,1,3,3v21a3,3,0,0,1-3,3h-3a3,3,0,0,0-3,3v3a3,3,0,0,1-3,3h-3a3,3,0,0,0-3,3v3a3,3,0,0,1-3,3h-39a3,3,0,0,1-3-3v-57a3,3,0,0,1,3-3h39a3,3,0,0,1,3,3v3a3,3,0,0,0,3,3h3a3,3,0,0,1,3,3v3A3,3,0,0,0,438.5,71.21Zm-18,27h5a3,3,0,0,0,3-3v-21a3,3,0,0,0-3-3h-5a3,3,0,0,1-3-3v-3a3,3,0,0,0-3-3h-12a3,3,0,0,0-3,3v39a3,3,0,0,0,3,3h12a3,3,0,0,0,3-3v-3A3,3,0,0,1,420.5,98.21Z"/></g><g id="Right_Path_" data-name="Right &lt;Path&gt;"><path class="cls-1" d="M224.5,254.1v51.61a8,8,0,0,1-4,6.92l-44,25.4a4,4,0,0,1-6-3.46V283a8,8,0,0,1,4-6.92l44-25.41A4,4,0,0,1,224.5,254.1Z"/></g><g id="_Path_" data-name="&lt;Path&gt;"><path class="cls-3" d="M113.82,173.07l-11-6.36a4,4,0,0,0-6,3.46v51.72a8,8,0,0,0,4,6.92l11,6.35a4,4,0,0,0,6-3.46V180A8,8,0,0,0,113.82,173.07Z"/></g><g id="_Path_2" data-name="&lt;Path&gt;"><path class="cls-3" d="M129.26,150.11l11.19-6.46a4,4,0,0,0,0-6.93l-11.19-6.46a8,8,0,0,0-8,0l-11.2,6.46a4,4,0,0,0,0,6.93l11.2,6.46A8,8,0,0,0,129.26,150.11Z"/></g><g id="Right_Path_2" data-name="Right &lt;Path&gt;"><path class="cls-3" d="M170.5,244v12.74a4,4,0,0,0,6,3.46l44-25.4a8,8,0,0,0,4-6.92V215.15a4,4,0,0,0-6-3.46l-44,25.4A8,8,0,0,0,170.5,244Z"/></g><g id="Right_Path_3" data-name="Right &lt;Path&gt;"><path class="cls-1" d="M243.5,299.35l45-26a8,8,0,0,0,4-6.92V136.92a4,4,0,0,0-6-3.46l-45,26a8,8,0,0,0-4,6.92V295.89A4,4,0,0,0,243.5,299.35Z"/></g><g id="Left_Path_" data-name="Left &lt;Path&gt;"><path class="cls-3" d="M157.5,244v12.74a4,4,0,0,1-6,3.46l-11-6.35a8,8,0,0,1-4-6.92V234.2a4,4,0,0,1,6-3.46l11,6.35A8,8,0,0,1,157.5,244Z"/></g><g id="Left_Path_2" data-name="Left &lt;Path&gt;"><path class="cls-1" d="M153.5,276.08l-112-64.66a4,4,0,0,0-6,3.46v51.57a8,8,0,0,0,4,6.92L151.5,338a4,4,0,0,0,6-3.46V283A8,8,0,0,0,153.5,276.08Z"/></g><g id="_Path_3" data-name="&lt;Path&gt;"><path class="cls-2" d="M157.5,205v12.74a4,4,0,0,1-6,3.46l-11-6.36a8,8,0,0,1-4-6.92V195.23a4,4,0,0,1,6-3.46l11,6.35A8,8,0,0,1,157.5,205Z"/></g><path d="M91.15,171.19V235a16,16,0,0,1-24,13.85L11.59,216.81A23.27,23.27,0,0,1,0,196.73V132.89A16,16,0,0,1,24,119l55.56,32.07A23.24,23.24,0,0,1,91.15,171.19Z"/><g id="_Path_4" data-name="&lt;Path&gt;"><path class="cls-1" d="M14,138.09v58.64a9.17,9.17,0,0,0,4.6,8l51.05,29.48a5,5,0,0,0,7.5-4.33V171.19a9.18,9.18,0,0,0-4.59-8L21.5,133.76A5,5,0,0,0,14,138.09Z"/></g><g id="_Path_5" data-name="&lt;Path&gt;"><path class="cls-2" d="M170.5,217.78V205.05a8,8,0,0,1,4-6.93l11-6.35a4,4,0,0,1,6,3.46V208a8,8,0,0,1-4,6.93l-11,6.35A4,4,0,0,1,170.5,217.78Z"/></g><g id="_Path_6" data-name="&lt;Path&gt;"><path class="cls-3" d="M209.5,202.19l11-6.36a8,8,0,0,0,4-6.92V176.18a4,4,0,0,0-6-3.47l-11,6.36a8,8,0,0,0-4,6.93v12.72A4,4,0,0,0,209.5,202.19Z"/></g><path d="M300.65,84.93a15.94,15.94,0,0,1-7.92,13.73L245.5,125.91a20,20,0,0,1-20.06,0L164,90.44l-61.45,35.48a20.11,20.11,0,0,1-20.06,0L35.27,98.66a15.84,15.84,0,0,1,0-27.44L154,2.69a20,20,0,0,1,20.06,0l118.7,68.53A15.89,15.89,0,0,1,300.65,84.93Z"/><g id="_Path_7" data-name="&lt;Path&gt;"><path class="cls-3" d="M169,117.4l-11,6.34a4,4,0,0,0,0,6.93l44.93,26a8,8,0,0,0,8,0l11-6.35a4,4,0,0,0,0-6.93L177,117.4A8,8,0,0,0,169,117.4Z"/></g><g id="_Path_8" data-name="&lt;Path&gt;"><path class="cls-2" d="M168,187.21l11.19-6.46a4,4,0,0,0,0-6.93L168,167.36a8,8,0,0,0-8,0l-11.2,6.46a4,4,0,0,0,0,6.93l11.2,6.46A8,8,0,0,0,168,187.21Z"/></g><path class="cls-3" d="M561.5,293.21v-57a3,3,0,0,0-3-3h-12a3,3,0,0,0-3,3v57a3,3,0,0,0,3,3h12A3,3,0,0,0,561.5,293.21Zm-45-54v-3a3,3,0,0,0-3-3h-48a3,3,0,0,0-3,3v57a3,3,0,0,0,3,3h12a3,3,0,0,0,3-3v-12a3,3,0,0,1,3-3h30a3,3,0,0,0,3-3v-3a3,3,0,0,1,3-3h3a3,3,0,0,0,3-3v-21a3,3,0,0,0-3-3h-3A3,3,0,0,1,516.5,239.22Zm-12,30h-21a3,3,0,0,1-3-3v-21a3,3,0,0,1,3-3h21a3,3,0,0,1,3,3v21A3,3,0,0,1,504.5,269.22Zm-69-27v-6a3,3,0,0,0-3-3h-39a3,3,0,0,0-3,3v6a3,3,0,0,1-3,3h-3a3,3,0,0,0-3,3v45a3,3,0,0,0,3,3h12a3,3,0,0,0,3-3v-12a3,3,0,0,1,3-3h21a3,3,0,0,1,3,3v12a3,3,0,0,0,3,3h12a3,3,0,0,0,3-3v-45a3,3,0,0,0-3-3h-3A3,3,0,0,1,435.5,242.21Zm-12,27h-21a3,3,0,0,1-3-3v-21a3,3,0,0,1,3-3h21a3,3,0,0,1,3,3v21A3,3,0,0,1,423.5,269.21Z"/><g id="_Path_9" data-name="&lt;Path&gt;"><path class="cls-1" d="M280.42,87.31l-44.73,25.82a8,8,0,0,1-8,0L168,78.66a8,8,0,0,0-8,0l-59.7,34.47a8,8,0,0,1-8,0L47.58,87.31a4,4,0,0,1,0-6.93L160,15.47a8,8,0,0,1,8,0L280.42,80.38A4,4,0,0,1,280.42,87.31Z"/></g></g></g></svg>