<?xml version="1.0" encoding="UTF-8"?>
<svg id="Layer_2" xmlns="http://www.w3.org/2000/svg" viewBox="0 0 899.55 1023">
  <defs>
    <style>
      .cls-1 {
        fill: #fff;
      }

      .cls-2 {
        fill: #e8c58e;
      }

      .cls-3 {
        fill: #3083d6;
      }

      .cls-4 {
        fill: #3eaf3e;
      }
    </style>
  </defs>
  <g id="Layer_16">
    <g>
      <path id="Outline" d="M488.21,1012.7l382.54-220.96c17.82-10.29,28.8-29.31,28.8-49.9v-446.69c0-27.45-14.64-52.81-38.41-66.53L478.59,7.72c-17.83-10.3-39.8-10.3-57.63,0L38.41,228.62C14.64,242.35,0,267.71,0,295.15v446.64c0,20.58,10.98,39.6,28.8,49.89l382.55,221.01c23.78,13.74,53.08,13.74,76.86,0Z"/>
      <g>
        <path class="cls-4" d="M678.66,659.16v175.44c0,12.32,13.34,20.02,24.01,13.86l152.06-87.75c7.93-4.57,12.81-13.03,12.81-22.18v-175.46c0-12.32-13.34-20.02-24.01-13.86l-152.06,87.78c-7.92,4.57-12.81,13.03-12.81,22.18Z"/>
        <path id="_x3C_Path_x3E_" class="cls-1" d="M464.18,534.03v44.44c0,14.79,16.01,24.03,28.81,16.63l38.41-22.18c7.92-4.57,12.8-13.03,12.8-22.18v-44.44c0-14.79-16.01-24.03-28.81-16.63l-38.41,22.18c-7.92,4.57-12.8,13.03-12.8,22.18Z"/>
        <path id="_x3C_Path_x3E_-2" data-name="_x3C_Path_x3E_" class="cls-3" d="M289.27,403.13l39.04,22.54c7.92,4.57,17.69,4.57,25.61,0l39.04-22.54c12.8-7.39,12.8-25.88,0-33.27l-39.04-22.54c-7.92-4.57-17.69-4.57-25.61,0l-39.04,22.54c-12.8,7.39-12.8,25.88,0,33.27Z"/>
        <path id="_x3C_Path_x3E_-3" data-name="_x3C_Path_x3E_" class="cls-1" d="M387.68,459.95l48.64,28.08c7.92,4.57,17.69,4.57,25.61,0l48.64-28.08c8.54-4.93,8.54-17.25,0-22.18l-48.64-28.08c-7.92-4.57-17.69-4.57-25.61,0l-48.64,28.08c-8.54,4.93-8.54,17.25,0,22.18Z"/>
      </g>
      <path id="Left__x3C_Path_x3E_" class="cls-2" d="M368.15,697.7l38.41,22.17c12.8,7.39,28.81-1.85,28.81-16.64v-44.46c0-9.15-4.88-17.61-12.81-22.18l-38.41-22.17c-12.8-7.39-28.81,1.85-28.81,16.64v44.46c0,9.15,4.88,17.61,12.81,22.18Z"/>
      <path class="cls-2" d="M44.82,760.13l147.26,85.01c12.8,7.39,28.81-1.85,28.81-16.63v-168.73c0-9.15-4.88-17.6-12.81-22.18l-147.26-85.01c-12.8-7.39-28.81,1.85-28.81,16.63v168.73c0,9.15,4.88,17.6,12.81,22.18Z"/>
      <path class="cls-2" d="M262.5,885.81l144.06,83.15c12.8,7.39,28.81-1.85,28.81-16.64v-168.73c0-9.15-4.88-17.6-12.8-22.18l-144.06-83.18c-12.8-7.39-28.81,1.85-28.81,16.63v168.76c0,9.15,4.88,17.61,12.81,22.18Z"/>
      <path id="_x3C_Path_x3E_-4" data-name="_x3C_Path_x3E_" class="cls-1" d="M368.14,572.91l38.42,22.19c12.8,7.4,28.81-1.84,28.81-16.63v-44.45c0-9.15-4.88-17.61-12.81-22.18l-38.41-22.17c-12.8-7.39-28.81,1.85-28.81,16.64v44.43c0,9.15,4.88,17.6,12.8,22.18Z"/>
      <path class="cls-3" d="M262.5,636.72l38.41,22.17c12.8,7.39,28.81-1.85,28.81-16.64v-169.22c0-9.15-4.88-17.6-12.8-22.18l-38.42-22.19c-12.8-7.4-28.81,1.84-28.81,16.63v169.23c0,9.15,4.88,17.61,12.81,22.18Z"/>
      <path id="_x3C_Path_x3E_-5" data-name="_x3C_Path_x3E_" class="cls-3" d="M569.82,473.04v44.44c0,14.79,16.01,24.03,28.81,16.63l38.41-22.18c7.92-4.57,12.8-13.02,12.8-22.17l.02-44.45c0-14.79-16-24.04-28.81-16.64l-38.43,22.19c-7.92,4.57-12.8,13.03-12.8,22.18Z"/>
      <path id="_x3C_Path_x3E_-6" data-name="_x3C_Path_x3E_" class="cls-3" d="M397.94,340.39l147.05,84.9c7.92,4.57,17.69,4.57,25.61,0l38.38-22.16c12.8-7.39,12.8-25.88,0-33.27l-147.05-84.9c-7.92-4.57-17.69-4.57-25.61,0l-38.38,22.16c-12.8,7.39-12.81,25.88,0,33.27Z"/>
      <path class="cls-3" d="M289.91,153.31l146.42,84.5c7.92,4.57,17.68,4.57,25.61,0l146.4-84.53c12.8-7.39,12.8-25.87,0-33.27l-146.39-84.52c-7.92-4.58-17.69-4.58-25.61,0l-146.42,84.55c-12.81,7.39-12.8,25.88,0,33.27Z"/>
      <path class="cls-3" d="M506.01,278l147.01,84.91c7.92,4.58,17.69,4.58,25.61,0l146.39-84.52c12.8-7.39,12.8-25.87,0-33.27l-147.03-84.91c-7.92-4.58-17.69-4.58-25.61,0l-146.37,84.52c-12.8,7.39-12.8,25.87,0,33.27Z"/>
      <path class="cls-4" d="M678.66,410.2v169.21c0,14.78,16,24.03,28.81,16.64l147.26-84.98c7.93-4.57,12.81-13.03,12.81-22.18v-169.24c0-14.79-16.01-24.03-28.81-16.63l-147.26,85.01c-7.92,4.57-12.81,13.03-12.81,22.18Z"/>
      <path class="cls-4" d="M464.18,782.84v169.9c0,14.77,15.98,24.02,28.79,16.65l144.08-82.94c7.94-4.57,12.83-13.03,12.83-22.2v-169.9c0-14.77-15.98-24.02-28.79-16.65l-144.08,82.94c-7.94,4.57-12.83,13.03-12.83,22.2Z"/>
      <path id="Right__x3C_Path_x3E_" class="cls-4" d="M464.18,658.77v44.46c0,14.79,16,24.03,28.81,16.64l144.06-83.15c7.92-4.57,12.81-13.03,12.81-22.18v-44.46c0-14.79-16-24.03-28.81-16.64l-144.06,83.15c-7.92,4.57-12.81,13.03-12.81,22.18Z"/>
      <path class="cls-3" d="M73.24,278.38l146.39,84.52c7.93,4.58,17.69,4.58,25.61,0l147.01-84.91c12.8-7.39,12.8-25.88,0-33.27l-146.36-84.5c-7.92-4.57-17.68-4.57-25.61,0l-147.03,84.88c-12.81,7.39-12.81,25.88,0,33.27Z"/>
      <path class="cls-3" d="M44.82,511.04l147.26,85.01c12.8,7.39,28.81-1.85,28.81-16.63v-168.73c0-9.15-4.88-17.6-12.81-22.18l-147.26-85.01c-12.8-7.39-28.81,1.85-28.81,16.63v168.73c0,9.15,4.88,17.6,12.81,22.18Z"/>
    </g>
  </g>
</svg>