<?xml version="1.0" encoding="UTF-8"?>
<svg id="Layer_2" xmlns="http://www.w3.org/2000/svg" viewBox="0 0 2975.95 1023">
  <defs>
    <style>
      .cls-1 {
        fill: #8c6cdc;
      }

      .cls-2 {
        fill: #fff;
      }

      .cls-3 {
        fill: #eae0b0;
      }
    </style>
  </defs>
  <g id="Layer_11">
    <g>
      <path d="M2966.43,459.72h-9.21c-5.26,0-9.53-4.27-9.53-9.53v-9.21c0-5.26-4.27-9.53-9.53-9.53h-9.21c-5.26,0-9.53-4.27-9.53-9.53v-9.21c0-5.26-4.27-9.53-9.53-9.53h-169.3c-5.26,0-9.53,4.27-9.53,9.53v9.21c0,5.26-4.27,9.53-9.53,9.53h-18.74c-5.26,0-9.53-4.27-9.53-9.53v-9.21c0-5.26-4.27-9.53-9.53-9.53h-84.47c-5.26,0-9.53,4.27-9.53,9.53v9.21c0,5.26-4.27,9.53-9.53,9.53h-18.74c-5.26,0-9.53-4.27-9.53-9.53v-9.21c0-5.26-4.27-9.53-9.53-9.53h-9.24c-5.26,0-9.53-4.27-9.53-9.53v-131.82c0-5.26,4.27-9.53,9.53-9.53h37.51c5.26,0,9.53-4.27,9.53-9.53v-59.36c0-5.26-4.27-9.53-9.53-9.53h-9.21c-5.26,0-9.53-4.27-9.53-9.53v-12.35c0-5.26-4.27-9.53-9.53-9.53h-282.39c-5.26,0-9.53,4.27-9.53,9.53v12.35c0,5.26-4.27,9.53-9.53,9.53h-18.74c-5.26,0-9.53-4.27-9.53-9.53v-12.35c0-5.26-4.27-9.53-9.53-9.53h-84.47c-5.26,0-9.53,4.27-9.53,9.53v12.35c0,5.26-4.27,9.53-9.53,9.53h-18.74c-5.26,0-9.53-4.27-9.53-9.53v-12.35c0-5.26-4.27-9.53-9.53-9.53h-593.33c-5.26,0-9.53,4.27-9.53,9.53v12.35c0,5.26-4.27,9.53-9.53,9.53h-18.74c-5.26,0-9.53-4.27-9.53-9.53v-12.35c0-5.26-4.27-9.53-9.53-9.53h-84.48c-5.26,0-9.53,4.27-9.53,9.53v40.62c0,5.26-4.27,9.53-9.53,9.53h-18.74c-5.26,0-9.53-4.27-9.53-9.53v-9.21c0-5.26-4.27-9.53-9.53-9.53h-9.24c-5.26,0-9.53-4.27-9.53-9.53v-12.35c0-5.26-4.27-9.53-9.53-9.53h-172.35c-5.26,0-9.53,4.27-9.53,9.53v228.94c0,5.26,4.27,9.53,9.53,9.53h1.16c5.26,0,9.53,4.27,9.53,9.53h0c0,5.26-4.27,9.53-9.53,9.53h-1.16c-5.26,0-9.53,4.27-9.53,9.53v216.3c0,5.26,4.27,9.53,9.53,9.53h1.16c5.26,0,9.53,4.26,9.53,9.52h0c0,5.26-4.26,9.53-9.53,9.53h-1.16c-5.26,0-9.53,4.27-9.53,9.53v230.79c0,5.26,4.27,9.53,9.53,9.53h7.51c5.26,0,9.53,4.27,9.53,9.53v9.54c0,5.26,4.27,9.53,9.53,9.53h89.23c5.26,0,9.53-4.27,9.53-9.53v-38.11c0-5.26,4.27-9.53,9.53-9.53h75.91c5.26,0,9.53,4.27,9.53,9.53v9.53c0,5.26,4.27,9.53,9.53,9.53h19.06c5.26,0,9.53,4.27,9.53,9.53v9.53c0,5.26,4.27,9.53,9.53,9.53h202.68c5.26,0,9.53-4.27,9.53-9.53v-9.53c0-5.26,4.26-9.53,9.53-9.53h21.06c5.26,0,9.53,4.26,9.53,9.52v9.54c0,5.26,4.27,9.53,9.53,9.53h181.45c5.26,0,9.53-4.27,9.53-9.53v-9.53c0-5.26,4.27-9.53,9.53-9.53h22.23c5.26,0,9.53,4.27,9.53,9.53v9.52c0,5.26,4.27,9.53,9.53,9.53l418.75-.23c5.26,0,9.52-4.27,9.52-9.53v-9.53c0-5.26,4.27-9.53,9.53-9.53h22.23c5.26,0,9.53,4.27,9.53,9.53v9.55c0,5.25,4.25,9.51,9.5,9.53l65.93.19c5.27.02,9.55-4.25,9.55-9.53v-235.58c0-5.26,4.27-9.53,9.53-9.53h180.38c5.26,0,9.53-4.27,9.53-9.53v-9.53c0-5.26,4.27-9.53,9.53-9.53h22.23c5.26,0,9.53,4.27,9.53,9.53v9.53c0,5.26,4.27,9.53,9.53,9.53h82.57c5.26,0,9.53-4.27,9.53-9.53v-9.53c0-5.26,4.27-9.53,9.53-9.53h22.23c5.26,0,9.53,4.27,9.53,9.53v9.53c0,5.26,4.27,9.53,9.53,9.53h149.18c5.26,0,9.53-4.27,9.53-9.53v-8.86c0-5.26,4.27-9.53,9.53-9.53h9.21c5.26,0,9.53-4.27,9.53-9.53v-181.04c0-5.26-4.27-9.53-9.53-9.53Z"/>
      <path id="Horizons" class="cls-1" d="M2867.64,473.86v-9.53c0-5.17-4.19-9.37-9.37-9.37h-66.07c-5.17,0-9.37,4.19-9.37,9.37v37.8c0,5.17,4.19,9.37,9.37,9.37h94.34c5.17,0,9.37,4.19,9.37,9.37v9.53c0,5.17,4.19,9.37,9.37,9.37h9.53c5.17,0,9.37,4.19,9.37,9.37v37.8c0,5.17-4.19,9.37-9.37,9.37h-9.53c-5.17,0-9.37,4.19-9.37,9.37v9.53c0,5.17-4.19,9.37-9.37,9.37h-122.6c-5.17,0-9.37-4.19-9.37-9.37v-9.53c0-5.17-4.19-9.37-9.37-9.37h-9.53c-5.17,0-9.37-4.19-9.37-9.37v-9.53c0-5.17,4.19-9.37,9.37-9.37h37.8c5.17,0,9.37,4.19,9.37,9.37v9.53c0,5.17,4.19,9.37,9.37,9.37h66.07c5.17,0,9.37-4.19,9.37-9.37v-37.8c0-5.17-4.19-9.37-9.37-9.37h-94.34c-5.17,0-9.37-4.19-9.37-9.37v-9.53c0-5.17-4.19-9.37-9.37-9.37h-9.53c-5.17,0-9.37-4.19-9.37-9.37v-37.8c0-5.17,4.19-9.37,9.37-9.37h9.53c5.17,0,9.37-4.19,9.37-9.37v-9.53c0-5.17,4.19-9.37,9.37-9.37h122.6c5.17,0,9.37,4.19,9.37,9.37v9.53c0,5.17,4.19,9.37,9.37,9.37h9.53c5.17,0,9.37,4.19,9.37,9.37v9.53c0,5.17-4.19,9.37-9.37,9.37h-37.8c-5.17,0-9.37-4.19-9.37-9.37ZM2660.4,426.7h-37.8c-5.17,0-9.37,4.19-9.37,9.37v66.07c0,5.17-4.19,9.37-9.37,9.37h-9.53c-5.17,0-9.37-4.19-9.37-9.37v-9.53c0-5.17-4.19-9.37-9.37-9.37h-9.53c-5.17,0-9.37-4.19-9.37-9.37v-9.53c0-5.17-4.19-9.37-9.37-9.37h-9.53c-5.17,0-9.37-4.19-9.37-9.37v-9.53c0-5.17-4.19-9.37-9.37-9.37h-37.8c-5.17,0-9.37,4.19-9.37,9.37v179.14c0,5.17,4.19,9.37,9.37,9.37h37.8c5.17,0,9.37-4.19,9.37-9.37v-94.34c0-5.17,4.19-9.37,9.37-9.37h9.53c5.17,0,9.37,4.19,9.37,9.37v9.53c0,5.17,4.19,9.37,9.37,9.37h9.53c5.17,0,9.37,4.19,9.37,9.37v9.53c0,5.17,4.19,9.37,9.37,9.37h9.53c5.17,0,9.37,4.19,9.37,9.37v37.8c0,5.17,4.19,9.37,9.37,9.37h37.8c5.17,0,9.37-4.19,9.37-9.37v-179.14c0-5.17-4.19-9.37-9.37-9.37ZM2396.46,454.96h9.53c5.17,0,9.37,4.19,9.37,9.37v122.6c0,5.17-4.19,9.37-9.37,9.37h-9.53c-5.17,0-9.37,4.19-9.37,9.37v9.53c0,5.17-4.19,9.37-9.37,9.37h-122.6c-5.17,0-9.37-4.19-9.37-9.37v-9.53c0-5.17-4.19-9.37-9.37-9.37h-9.53c-5.17,0-9.37-4.19-9.37-9.37v-122.6c0-5.17,4.19-9.37,9.37-9.37h9.53c5.17,0,9.37-4.19,9.37-9.37v-9.53c0-5.17,4.19-9.37,9.37-9.37h122.6c5.17,0,9.37,4.19,9.37,9.37v9.53c0,5.17,4.19,9.37,9.37,9.37ZM2283.38,596.3h66.07c5.17,0,9.37-4.19,9.37-9.37v-122.6c0-5.17-4.19-9.37-9.37-9.37h-66.07c-5.17,0-9.37,4.19-9.37,9.37v122.6c0,5.17,4.19,9.37,9.37,9.37ZM2151.58,426.7h-179.14c-5.17,0-9.37,4.19-9.37,9.37v9.53c0,5.17,4.19,9.37,9.37,9.37h94.34c5.17,0,9.37,4.19,9.37,9.37v9.53c0,5.17-4.19,9.37-9.37,9.37h-9.53c-5.17,0-9.37,4.19-9.37,9.37v9.53c0,5.17-4.19,9.37-9.37,9.37h-9.53c-5.17,0-9.37,4.19-9.37,9.37v9.53c0,5.17-4.19,9.37-9.37,9.37h-9.53c-5.17,0-9.37,4.19-9.37,9.37v9.53c0,5.17-4.19,9.37-9.37,9.37h-9.53c-5.17,0-9.37,4.19-9.37,9.37v37.8c0,5.17,4.19,9.37,9.37,9.37h179.14c5.17,0,9.37-4.19,9.37-9.37v-9.53c0-5.17-4.19-9.37-9.37-9.37h-94.34c-5.17,0-9.37-4.19-9.37-9.37v-9.53c0-5.17,4.19-9.37,9.37-9.37h9.53c5.17,0,9.37-4.19,9.37-9.37v-9.53c0-5.17,4.19-9.37,9.37-9.37h9.53c5.17,0,9.37-4.19,9.37-9.37v-9.53c0-5.17,4.19-9.37,9.37-9.37h9.53c5.17,0,9.37-4.19,9.37-9.37v-9.53c0-5.17,4.19-9.37,9.37-9.37h9.53c5.17,0,9.37-4.19,9.37-9.37v-37.8c0-5.17-4.19-9.37-9.37-9.37ZM1906.53,615.2v-179.14c0-5.17-4.19-9.37-9.37-9.37h-37.8c-5.17,0-9.37,4.19-9.37,9.37v179.14c0,5.17,4.19,9.37,9.37,9.37h37.8c5.17,0,9.37-4.19,9.37-9.37ZM1784.09,511.5h-9.53c-5.17,0-9.37,4.19-9.37,9.37v9.53c0,5.17,4.19,9.37,9.37,9.37h9.53c5.17,0,9.37,4.19,9.37,9.37v66.07c0,5.17-4.19,9.37-9.37,9.37h-37.8c-5.17,0-9.37-4.19-9.37-9.37v-66.07c0-5.17-4.19-9.37-9.37-9.37h-66.07c-5.17,0-9.37,4.19-9.37,9.37v66.07c0,5.17-4.19,9.37-9.37,9.37h-37.8c-5.17,0-9.37-4.19-9.37-9.37v-179.14c0-5.17,4.19-9.37,9.37-9.37h150.87c5.17,0,9.37,4.19,9.37,9.37v9.53c0,5.17,4.19,9.37,9.37,9.37h9.53c5.17,0,9.37,4.19,9.37,9.37v37.8c0,5.17-4.19,9.37-9.37,9.37ZM1736.92,502.13v-37.8c0-5.17-4.19-9.37-9.37-9.37h-66.07c-5.17,0-9.37,4.19-9.37,9.37v37.8c0,5.17,4.19,9.37,9.37,9.37h66.07c5.17,0,9.37-4.19,9.37-9.37ZM1520.15,454.96h9.53c5.17,0,9.37,4.19,9.37,9.37v122.6c0,5.17-4.19,9.37-9.37,9.37h-9.53c-5.17,0-9.37,4.19-9.37,9.37v9.53c0,5.17-4.19,9.37-9.37,9.37h-122.6c-5.17,0-9.37-4.19-9.37-9.37v-9.53c0-5.17-4.19-9.37-9.37-9.37h-9.53c-5.17,0-9.37-4.19-9.37-9.37v-122.6c0-5.17,4.19-9.37,9.37-9.37h9.53c5.17,0,9.37-4.19,9.37-9.37v-9.53c0-5.17,4.19-9.37,9.37-9.37h122.6c5.17,0,9.37,4.19,9.37,9.37v9.53c0,5.17,4.19,9.37,9.37,9.37ZM1482.51,586.94v-122.6c0-5.17-4.19-9.37-9.37-9.37h-66.07c-5.17,0-9.37,4.19-9.37,9.37v122.6c0,5.17,4.19,9.37,9.37,9.37h66.07c5.17,0,9.37-4.19,9.37-9.37ZM1275.27,426.7h-37.8c-5.17,0-9.37,4.19-9.37,9.37v66.07c0,5.17-4.19,9.37-9.37,9.37h-66.07c-5.17,0-9.37-4.19-9.37-9.37v-66.07c0-5.17-4.19-9.37-9.37-9.37h-37.8c-5.17,0-9.37,4.19-9.37,9.37v179.14c0,5.17,4.19,9.37,9.37,9.37h37.8c5.17,0,9.37-4.19,9.37-9.37v-66.07c0-5.17,4.19-9.37,9.37-9.37h66.07c5.17,0,9.37,4.19,9.37,9.37v66.07c0,5.17,4.19,9.37,9.37,9.37h37.8c5.17,0,9.37-4.19,9.37-9.37v-179.14c0-5.17-4.19-9.37-9.37-9.37Z"/>
      <g id="Distant">
        <path class="cls-2" d="M2528.43,181.65v9.53c0,5.17-4.19,9.37-9.37,9.37h-37.8c-5.17,0-9.37,4.19-9.37,9.37v150.87c0,5.17-4.19,9.37-9.37,9.37h-37.8c-5.17,0-9.37-4.19-9.37-9.37v-150.87c0-5.17-4.19-9.37-9.37-9.37h-37.8c-5.17,0-9.37-4.19-9.37-9.37v-9.53c0-5.17,4.19-9.37,9.37-9.37h150.87c5.17,0,9.37,4.19,9.37,9.37ZM2321.18,172.28h-37.8c-5.17,0-9.37,4.19-9.37,9.37v66.07c0,5.17-4.19,9.37-9.37,9.37h-9.53c-5.17,0-9.37-4.19-9.37-9.37v-9.53c0-5.17-4.19-9.37-9.37-9.37h-9.53c-5.17,0-9.37-4.19-9.37-9.37v-9.53c0-5.17-4.19-9.37-9.37-9.37h-9.53c-5.17,0-9.37-4.19-9.37-9.37v-9.53c0-5.17-4.19-9.37-9.37-9.37h-37.8c-5.17,0-9.37,4.19-9.37,9.37v179.14c0,5.17,4.19,9.37,9.37,9.37h37.8c5.17,0,9.37-4.19,9.37-9.37v-94.34c0-5.17,4.19-9.37,9.37-9.37h9.53c5.17,0,9.37,4.19,9.37,9.37v9.53c0,5.17,4.19,9.37,9.37,9.37h9.53c5.17,0,9.37,4.19,9.37,9.37v9.53c0,5.17,4.19,9.37,9.37,9.37h9.53c5.17,0,9.37,4.19,9.37,9.37v37.8c0,5.17,4.19,9.37,9.37,9.37h37.8c5.17,0,9.37-4.19,9.37-9.37v-179.14c0-5.17-4.19-9.37-9.37-9.37ZM2057.24,209.97h9.53c5.17,0,9.37,4.19,9.37,9.37v141.45c0,5.17-4.19,9.37-9.37,9.37h-37.8c-5.17,0-9.37-4.19-9.37-9.37v-37.8c0-5.17-4.19-9.37-9.37-9.37h-66.07c-5.17,0-9.37,4.19-9.37,9.37v37.8c0,5.17-4.19,9.37-9.37,9.37h-37.8c-5.17,0-9.37-4.19-9.37-9.37v-141.45c0-5.17,4.19-9.37,9.37-9.37h9.53c5.17,0,9.37-4.19,9.37-9.37v-18.95c0-5.17,4.19-9.37,9.37-9.37h122.6c5.17,0,9.37,4.19,9.37,9.37v18.95c0,5.17,4.19,9.37,9.37,9.37ZM2019.6,275.99v-66.07c0-5.17-4.19-9.37-9.37-9.37h-66.07c-5.17,0-9.37,4.19-9.37,9.37v66.07c0,5.17,4.19,9.37,9.37,9.37h66.07c5.17,0,9.37-4.19,9.37-9.37ZM1840.63,172.28h-150.87c-5.17,0-9.37,4.19-9.37,9.37v9.53c0,5.17,4.19,9.37,9.37,9.37h37.8c5.17,0,9.37,4.19,9.37,9.37v150.87c0,5.17,4.19,9.37,9.37,9.37h37.8c5.17,0,9.37-4.19,9.37-9.37v-150.87c0-5.17,4.19-9.37,9.37-9.37h37.8c5.17,0,9.37-4.19,9.37-9.37v-9.53c0-5.17-4.19-9.37-9.37-9.37ZM1604.95,228.82h37.8c5.17,0,9.37-4.19,9.37-9.37v-9.53c0-5.17-4.19-9.37-9.37-9.37h-9.53c-5.17,0-9.37-4.19-9.37-9.37v-9.53c0-5.17-4.19-9.37-9.37-9.37h-122.6c-5.17,0-9.37,4.19-9.37,9.37v9.53c0,5.17-4.19,9.37-9.37,9.37h-9.53c-5.17,0-9.37,4.19-9.37,9.37v37.8c0,5.17,4.19,9.37,9.37,9.37h9.53c5.17,0,9.37,4.19,9.37,9.37v9.53c0,5.17,4.19,9.37,9.37,9.37h94.34c5.17,0,9.37,4.19,9.37,9.37v37.8c0,5.17-4.19,9.37-9.37,9.37h-66.07c-5.17,0-9.37-4.19-9.37-9.37v-9.53c0-5.17-4.19-9.37-9.37-9.37h-37.8c-5.17,0-9.37,4.19-9.37,9.37v9.53c0,5.17,4.19,9.37,9.37,9.37h9.53c5.17,0,9.37,4.19,9.37,9.37v9.53c0,5.17,4.19,9.37,9.37,9.37h122.6c5.17,0,9.37-4.19,9.37-9.37v-9.53c0-5.17,4.19-9.37,9.37-9.37h9.53c5.17,0,9.37-4.19,9.37-9.37v-37.8c0-5.17-4.19-9.37-9.37-9.37h-9.53c-5.17,0-9.37-4.19-9.37-9.37v-9.53c0-5.17-4.19-9.37-9.37-9.37h-94.34c-5.17,0-9.37-4.19-9.37-9.37v-37.8c0-5.17,4.19-9.37,9.37-9.37h66.07c5.17,0,9.37,4.19,9.37,9.37v9.53c0,5.17,4.19,9.37,9.37,9.37ZM1397.71,360.79v-179.14c0-5.17-4.19-9.37-9.37-9.37h-37.8c-5.17,0-9.37,4.19-9.37,9.37v179.14c0,5.17,4.19,9.37,9.37,9.37h37.8c5.17,0,9.37-4.19,9.37-9.37ZM1265.74,228.82h9.53c5.17,0,9.37,4.19,9.37,9.37v66.07c0,5.17-4.19,9.37-9.37,9.37h-9.53c-5.17,0-9.37,4.19-9.37,9.37v9.53c0,5.17-4.19,9.37-9.37,9.37h-9.53c-5.17,0-9.37,4.19-9.37,9.37v9.53c0,5.17-4.19,9.37-9.37,9.37h-122.6c-5.17,0-9.37-4.19-9.37-9.37v-179.14c0-5.17,4.19-9.37,9.37-9.37h122.6c5.17,0,9.37,4.19,9.37,9.37v9.53c0,5.17,4.19,9.37,9.37,9.37h9.53c5.17,0,9.37,4.19,9.37,9.37v9.53c0,5.17,4.19,9.37,9.37,9.37ZM1209.2,313.62h15.81c5.17,0,9.37-4.19,9.37-9.37v-66.07c0-5.17-4.19-9.37-9.37-9.37h-15.81c-5.17,0-9.37-4.19-9.37-9.37v-9.53c0-5.17-4.19-9.37-9.37-9.37h-37.8c-5.17,0-9.37,4.19-9.37,9.37v122.6c0,5.17,4.19,9.37,9.37,9.37h37.8c5.17,0,9.37-4.19,9.37-9.37v-9.53c0-5.17,4.19-9.37,9.37-9.37Z"/>
      </g>
      <g>
        <path id="N" class="cls-3" d="M2334.7,681.11h-37.8c-5.17,0-9.37,4.19-9.37,9.37v66.07c0,5.17-4.19,9.37-9.37,9.37h-9.53c-5.17,0-9.37-4.19-9.37-9.37v-9.53c0-5.17-4.19-9.37-9.37-9.37h-9.53c-5.17,0-9.37-4.19-9.37-9.37v-9.53c0-5.17-4.19-9.37-9.37-9.37h-9.53c-5.17,0-9.37-4.19-9.37-9.37v-9.53c0-5.17-4.19-9.37-9.37-9.37h-37.8c-5.17,0-9.37,4.19-9.37,9.37v179.14c0,5.17,4.19,9.37,9.37,9.37h37.8c5.17,0,9.37-4.19,9.37-9.37v-94.34c0-5.17,4.19-9.37,9.37-9.37h9.53c5.17,0,9.37,4.19,9.37,9.37v9.53c0,5.17,4.19,9.37,9.37,9.37h9.53c5.17,0,9.37,4.19,9.37,9.37v9.53c0,5.17,4.19,9.37,9.37,9.37h9.53c5.17,0,9.37,4.19,9.37,9.37v37.8c0,5.17,4.19,9.37,9.37,9.37h37.8c5.17,0,9.37-4.19,9.37-9.37v-179.14c0-5.17-4.19-9.37-9.37-9.37Z"/>
        <g id="O_2">
          <path class="cls-3" d="M1385,709.37v-18.89c0-5.17-4.19-9.37-9.36-9.37h-37.8c-5.17,0-9.37,4.19-9.37,9.37v179.14c0,5.17,4.19,9.37,9.37,9.37h150.88c5.17,0,9.37-4.19,9.37-9.36v-9.53c0-5.17-4.19-9.37-9.37-9.37h-94.35c-5.17,0-9.37-4.19-9.37-9.37v-131.99Z"/>
        </g>
        <rect id="I" class="cls-3" x="1962.45" y="751.78" width="197.88" height="56.54" rx="9.37" ry="9.37" transform="translate(2841.43 -1281.34) rotate(90)"/>
        <g id="R">
          <path class="cls-3" d="M1256.37,700v-9.53c0-5.17-4.19-9.37-9.37-9.37h-150.88c-5.17,0-9.37,4.19-9.37,9.37v179.15c0,5.17,4.19,9.37,9.37,9.37h37.79c5.17,0,9.37-4.19,9.37-9.37v-66.09c0-5.17,4.19-9.37,9.37-9.37h94.35c5.17,0,9.37-4.19,9.37-9.37v-9.53c0-5.17,4.19-9.37,9.37-9.37h9.53c5.17,0,9.37-4.19,9.37-9.37v-37.79c0-5.17-4.19-9.37-9.37-9.37h-9.53c-5.17,0-9.37-4.19-9.37-9.37ZM1218.74,765.9h-66.09c-5.17,0-9.37-4.19-9.37-9.37v-37.79c0-5.17,4.19-9.37,9.37-9.37h66.09c5.17,0,9.37,4.19,9.37,9.37v37.79c0,5.17-4.19,9.37-9.37,9.37Z"/>
        </g>
        <g id="O_1">
          <path class="cls-3" d="M1736.28,690.48v150.87c0,5.17-4.19,9.37-9.36,9.37h-9.53c-5.17,0-9.37,4.19-9.37,9.37v9.53c0,5.17-4.19,9.37-9.37,9.37h-122.6c-5.17,0-9.37-4.19-9.37-9.37v-9.53c0-5.17-4.19-9.37-9.37-9.37h-9.53c-5.17,0-9.37-4.19-9.37-9.37v-150.87c.01-5.17,4.21-9.37,9.38-9.37h37.79c5.17,0,9.37,4.2,9.37,9.37v150.87c0,5.17,4.19,9.37,9.36,9.37h66.07c5.17,0,9.37-4.19,9.37-9.37v-150.87c0-5.17,4.19-9.37,9.37-9.37h37.79c5.17,0,9.37,4.19,9.37,9.37Z"/>
        </g>
        <g id="O_2-2" data-name="O_2">
          <path class="cls-3" d="M1925.45,765.91h-18.91c-5.17,0-9.37,4.19-9.37,9.37v9.53c0,5.17,4.19,9.37,9.37,9.37h9.54c5.17,0,9.37,4.19,9.37,9.37v37.81c0,5.17-4.19,9.37-9.37,9.37h-66.06c-5.17,0-9.37-4.19-9.37-9.37v-122.62c0-5.17,4.19-9.37,9.37-9.37h66.06c5.17,0,9.37,4.19,9.37,9.37v9.54c0,5.17,4.19,9.37,9.37,9.37h37.8c5.18,0,9.37-4.2,9.37-9.37v-9.54c0-5.17-4.2-9.36-9.37-9.36h-9.53c-5.17,0-9.37-4.19-9.37-9.37v-9.53c0-5.17-4.19-9.37-9.37-9.37h-122.59c-5.17,0-9.37,4.19-9.37,9.37v9.53c0,5.17-4.19,9.37-9.37,9.37h-9.53c-5.17,0-9.37,4.19-9.37,9.37v122.62c0,5.17,4.19,9.37,9.37,9.37h9.53c5.17,0,9.37,4.19,9.37,9.37v9.53c0,5.17,4.19,9.37,9.37,9.37h94.32c5.17,0,9.37-4.19,9.37-9.37v-3.18c0-5.17,4.19-9.37,9.37-9.37h9.53c5.18,0,9.37,4.2,9.37,9.37v3.17c0,5.18,4.19,9.37,9.37,9.37h9.54c5.17,0,9.37-4.19,9.37-9.37v-94.34c0-5.17-4.19-9.37-9.37-9.37h-47.18Z"/>
        </g>
      </g>
    </g>
    <g>
      <path id="Outline" d="M488.21,1012.7l382.54-220.96c17.82-10.29,28.8-29.31,28.8-49.9v-446.69c0-27.45-14.64-52.81-38.41-66.53L478.59,7.72c-17.83-10.3-39.8-10.3-57.63,0L38.41,228.62C14.64,242.35,0,267.71,0,295.15v446.64c0,20.58,10.98,39.6,28.8,49.89l382.55,221.01c23.78,13.74,53.08,13.74,76.86,0Z"/>
      <path class="cls-1" d="M678.66,659.16v175.44c0,12.32,13.34,20.02,24.01,13.86l152.06-87.75c7.93-4.57,12.81-13.03,12.81-22.18v-175.46c0-12.32-13.34-20.02-24.01-13.86l-152.06,87.78c-7.92,4.57-12.81,13.03-12.81,22.18Z"/>
      <path class="cls-1" d="M44.82,760.13l147.26,85.01c12.8,7.39,28.81-1.85,28.81-16.63v-168.73c0-9.15-4.88-17.6-12.81-22.18l-147.26-85.01c-12.8-7.39-28.81,1.85-28.81,16.63v168.73c0,9.15,4.88,17.6,12.81,22.18Z"/>
      <path class="cls-1" d="M262.5,885.81l144.06,83.15c12.8,7.39,28.81-1.85,28.81-16.64v-168.73c0-9.15-4.88-17.6-12.8-22.18l-144.06-83.18c-12.8-7.39-28.81,1.85-28.81,16.63v168.76c0,9.15,4.88,17.61,12.81,22.18Z"/>
      <path id="_x3C_Path_x3E_" class="cls-2" d="M396.92,590.66l39.04,22.54c7.92,4.57,17.69,4.57,25.61,0l39.04-22.54c12.8-7.39,12.8-25.88,0-33.27l-39.04-22.54c-7.92-4.57-17.69-4.57-25.61,0l-39.04,22.54c-12.8,7.39-12.8,25.88,0,33.27Z"/>
      <path id="_x3C_Path_x3E_-2" data-name="_x3C_Path_x3E_" class="cls-3" d="M495.33,647.47l48.64,28.08c7.92,4.57,17.69,4.57,25.61,0l48.64-28.08c8.54-4.93,8.54-17.25,0-22.18l-48.64-28.08c-7.92-4.57-17.69-4.57-25.61,0l-48.64,28.08c-8.54,4.93-8.54,17.25,0,22.18Z"/>
      <path id="_x3C_Path_x3E_-3" data-name="_x3C_Path_x3E_" class="cls-3" d="M289.93,652.53l147.05,84.9c7.92,4.57,17.69,4.57,25.61,0l38.38-22.16c12.8-7.39,12.8-25.88,0-33.27l-147.05-84.9c-7.92-4.57-17.69-4.57-25.61,0l-38.38,22.16c-12.8,7.39-12.81,25.88,0,33.27Z"/>
      <path class="cls-1" d="M289.91,153.31l146.42,84.5c7.92,4.57,17.68,4.57,25.61,0l146.4-84.53c12.8-7.39,12.8-25.87,0-33.27l-146.39-84.52c-7.92-4.58-17.69-4.58-25.61,0l-146.42,84.55c-12.81,7.39-12.8,25.88,0,33.27Z"/>
      <path class="cls-1" d="M506.01,278l147.01,84.91c7.92,4.58,17.69,4.58,25.61,0l146.39-84.52c12.8-7.39,12.8-25.87,0-33.27l-147.03-84.91c-7.92-4.58-17.69-4.58-25.61,0l-146.37,84.52c-12.8,7.39-12.8,25.87,0,33.27Z"/>
      <path class="cls-1" d="M678.66,410.2v169.21c0,14.78,16,24.03,28.81,16.64l147.26-84.98c7.93-4.57,12.81-13.03,12.81-22.18v-169.24c0-14.79-16.01-24.03-28.81-16.63l-147.26,85.01c-7.92,4.57-12.81,13.03-12.81,22.18Z"/>
      <path class="cls-1" d="M464.18,782.84v169.9c0,14.77,15.98,24.02,28.79,16.65l144.08-82.94c7.94-4.57,12.83-13.03,12.83-22.2v-169.9c0-14.77-15.98-24.02-28.79-16.65l-144.08,82.94c-7.94,4.57-12.83,13.03-12.83,22.2Z"/>
      <path id="_x3C_Path_x3E_-4" data-name="_x3C_Path_x3E_" class="cls-3" d="M249.7,532.86v44.44c0,14.79,16.01,24.03,28.81,16.63l38.41-22.18c7.92-4.57,12.8-13.03,12.8-22.18v-44.44c0-14.79-16.01-24.03-28.81-16.63l-38.41,22.18c-7.92,4.57-12.8,13.03-12.8,22.18Z"/>
      <path id="_x3C_Path_x3E_-5" data-name="_x3C_Path_x3E_" class="cls-2" d="M355.34,471.87v44.44c0,14.79,16.01,24.03,28.81,16.63l38.41-22.18c7.92-4.57,12.8-13.02,12.8-22.17l.02-44.45c0-14.79-16-24.04-28.81-16.64l-38.43,22.19c-7.92,4.57-12.8,13.03-12.8,22.18Z"/>
      <path id="Right__x3C_Path_x3E_" class="cls-3" d="M249.7,407.5v44.46c0,14.79,16,24.03,28.81,16.64l144.06-83.15c7.92-4.57,12.81-13.03,12.81-22.18v-44.46c0-14.79-16-24.03-28.81-16.64l-144.06,83.15c-7.92,4.57-12.81,13.03-12.81,22.18Z"/>
      <path class="cls-1" d="M73.24,278.38l146.39,84.52c7.93,4.58,17.69,4.58,25.61,0l147.01-84.91c12.8-7.39,12.8-25.88,0-33.27l-146.36-84.5c-7.92-4.57-17.68-4.57-25.61,0l-147.03,84.88c-12.81,7.39-12.81,25.88,0,33.27Z"/>
      <path class="cls-1" d="M44.82,511.04l147.26,85.01c12.8,7.39,28.81-1.85,28.81-16.63v-168.73c0-9.15-4.88-17.6-12.81-22.18l-147.26-85.01c-12.8-7.39-28.81,1.85-28.81,16.63v168.73c0,9.15,4.88,17.6,12.81,22.18Z"/>
      <path id="Left__x3C_Path_x3E_" class="cls-2" d="M477.06,510.97l38.41,22.17c12.8,7.39,28.81-1.85,28.81-16.64v-44.46c0-9.15-4.88-17.61-12.81-22.18l-38.41-22.17c-12.8-7.39-28.81,1.85-28.81,16.64v44.46c0,9.15,4.88,17.61,12.81,22.18Z"/>
      <path id="_x3C_Path_x3E_-6" data-name="_x3C_Path_x3E_" class="cls-3" d="M477.06,386.18l38.42,22.19c12.8,7.4,28.81-1.84,28.81-16.63v-44.45c0-9.15-4.88-17.61-12.81-22.18l-38.41-22.17c-12.8-7.39-28.81,1.85-28.81,16.64v44.43c0,9.15,4.88,17.6,12.8,22.18Z"/>
      <path class="cls-3" d="M582.63,571.92l38.41,22.17c12.8,7.39,28.81-1.85,28.81-16.64v-169.22c0-9.15-4.88-17.6-12.8-22.18l-38.42-22.19c-12.8-7.4-28.81,1.84-28.81,16.63v169.23c0,9.15,4.88,17.61,12.81,22.18Z"/>
    </g>
  </g>
</svg>