<?xml version="1.0" encoding="UTF-8"?>
<svg id="Layer_2" xmlns="http://www.w3.org/2000/svg" viewBox="0 0 903.26 1023">
  <defs>
    <style>
      .cls-1 {
        fill: #fff;
      }
    </style>
  </defs>
  <g id="Layer_18">
    <g>
      <g>
        <path id="Outline" d="M488.91,997.61l371.02-214.31c17.29-9.98,27.93-28.43,27.93-48.39v-433.24c0-26.62-14.2-51.22-37.25-64.53L479.58,22.89c-17.29-9.99-38.6-9.99-55.89,0L52.65,237.14c-23.05,13.31-37.25,37.91-37.25,64.53v433.19c0,19.96,10.65,38.41,27.93,48.39l371.03,214.36c23.06,13.32,51.48,13.33,74.55,0Z"/>
        <path id="Outline-2" data-name="Outline" class="cls-1" d="M451.63,15.4c9.65,0,19.3,2.5,27.95,7.49l371.03,214.25c23.05,13.31,37.25,37.91,37.25,64.53v433.24c0,19.96-10.65,38.41-27.93,48.39l-371.02,214.31c-11.53,6.66-24.4,9.99-37.27,9.99s-25.75-3.33-37.28-9.99L43.33,783.25c-17.28-9.99-27.93-28.43-27.93-48.39v-433.19c0-26.62,14.2-51.22,37.25-64.53L423.68,22.89c8.65-4.99,18.3-7.49,27.95-7.49M451.63,0c-12.5,0-24.82,3.3-35.65,9.55L44.95,223.8C17.23,239.81,0,269.65,0,301.67v433.19c0,25.38,13.65,49.03,35.63,61.73l371.03,214.36c13.66,7.89,29.21,12.06,44.98,12.06s31.32-4.17,44.97-12.06l371.02-214.31c21.98-12.7,35.63-36.35,35.63-61.73v-433.24c0-32.02-17.23-61.86-44.95-77.87L487.28,9.55c-10.82-6.25-23.15-9.55-35.65-9.55h0Z"/>
      </g>
      <g>
        <path class="cls-1" d="M673.63,654.71v170.15c0,11.95,12.93,19.42,23.28,13.45l147.48-85.11c7.69-4.44,12.42-12.64,12.42-21.51v-170.18c0-11.95-12.94-19.42-23.29-13.44l-147.48,85.14c-7.69,4.44-12.42,12.64-12.42,21.51Z"/>
        <path id="_x3C_Path_x3E_" class="cls-1" d="M465.6,533.35v43.11c0,14.34,15.52,23.3,27.94,16.13l37.26-21.51c7.69-4.44,12.42-12.64,12.42-21.51v-43.11c0-14.34-15.52-23.3-27.94-16.13l-37.26,21.51c-7.69,4.44-12.42,12.64-12.42,21.51Z"/>
        <path id="_x3C_Path_x3E_-2" data-name="_x3C_Path_x3E_" class="cls-1" d="M295.96,406.39l37.86,21.86c7.69,4.44,17.15,4.44,24.84,0l37.86-21.86c12.42-7.17,12.42-25.1,0-32.27l-37.86-21.86c-7.69-4.44-17.15-4.44-24.84,0l-37.86,21.86c-12.42,7.17-12.42,25.1,0,32.27Z"/>
        <path id="_x3C_Path_x3E_-3" data-name="_x3C_Path_x3E_" class="cls-1" d="M391.41,461.5l47.18,27.24c7.69,4.44,17.15,4.44,24.84,0l47.18-27.24c8.28-4.78,8.28-16.73,0-21.51l-47.18-27.24c-7.69-4.44-17.15-4.44-24.84,0l-47.18,27.24c-8.28,4.78-8.28,16.73,0,21.51Z"/>
      </g>
      <path id="Left__x3C_Path_x3E_" class="cls-1" d="M372.46,692.09l37.26,21.5c12.42,7.17,27.94-1.8,27.94-16.13v-43.12c0-8.88-4.74-17.08-12.42-21.51l-37.26-21.5c-12.42-7.17-27.94,1.8-27.94,16.13v43.12c0,8.88,4.74,17.08,12.42,21.51Z"/>
      <path class="cls-1" d="M58.87,752.64l142.82,82.45c12.42,7.17,27.94-1.79,27.94-16.13v-163.65c0-8.87-4.73-17.07-12.42-21.51l-142.82-82.45c-12.42-7.17-27.94,1.79-27.94,16.13v163.65c0,8.87,4.73,17.07,12.42,21.51Z"/>
      <path class="cls-1" d="M270,874.54l139.72,80.65c12.42,7.17,27.94-1.79,27.94-16.13v-163.65c0-8.87-4.73-17.07-12.42-21.51l-139.72-80.67c-12.42-7.17-27.94,1.79-27.94,16.13v163.68c0,8.87,4.74,17.08,12.42,21.51Z"/>
      <path id="_x3C_Path_x3E_-4" data-name="_x3C_Path_x3E_" class="cls-1" d="M372.45,571.06l37.26,21.52c12.42,7.17,27.95-1.79,27.95-16.13v-43.11c0-8.88-4.74-17.08-12.42-21.51l-37.26-21.5c-12.42-7.17-27.94,1.8-27.94,16.13v43.09c0,8.87,4.73,17.07,12.41,21.51Z"/>
      <path class="cls-1" d="M270,632.95l37.26,21.5c12.42,7.17,27.94-1.8,27.94-16.13v-164.12c0-8.87-4.73-17.07-12.42-21.51l-37.26-21.52c-12.42-7.17-27.95,1.79-27.95,16.13v164.14c0,8.88,4.74,17.08,12.42,21.51Z"/>
      <path id="_x3C_Path_x3E_-5" data-name="_x3C_Path_x3E_" class="cls-1" d="M568.06,474.2v43.1c0,14.34,15.52,23.3,27.94,16.13l37.26-21.51c7.68-4.43,12.42-12.63,12.42-21.5l.02-43.11c0-14.34-15.52-23.31-27.94-16.14l-37.28,21.52c-7.69,4.44-12.42,12.64-12.42,21.51Z"/>
      <path id="_x3C_Path_x3E_-6" data-name="_x3C_Path_x3E_" class="cls-1" d="M401.36,345.54l142.62,82.34c7.69,4.44,17.15,4.44,24.84,0l37.23-21.49c12.42-7.17,12.42-25.1,0-32.27l-142.62-82.34c-7.69-4.44-17.15-4.44-24.84,0l-37.23,21.49c-12.42,7.17-12.42,25.1,0,32.27Z"/>
      <path class="cls-1" d="M296.58,164.09l142.01,81.95c7.68,4.43,17.15,4.43,24.84,0l141.99-81.98c12.42-7.17,12.42-25.1,0-32.27l-141.99-81.98c-7.69-4.44-17.16-4.44-24.84,0l-142.01,82.01c-12.42,7.17-12.42,25.1,0,32.27Z"/>
      <path class="cls-1" d="M506.18,285.03l142.58,82.35c7.69,4.44,17.16,4.44,24.84,0l141.98-81.98c12.42-7.17,12.42-25.09,0-32.27l-142.61-82.35c-7.69-4.44-17.16-4.44-24.84,0l-141.96,81.98c-12.42,7.17-12.42,25.09,0,32.26Z"/>
      <path class="cls-1" d="M673.63,413.25v164.12c0,14.34,15.52,23.3,27.94,16.14l142.82-82.42c7.69-4.44,12.42-12.64,12.42-21.51v-164.15c0-14.34-15.52-23.3-27.94-16.13l-142.82,82.45c-7.69,4.44-12.42,12.64-12.42,21.51Z"/>
      <path class="cls-1" d="M465.6,774.67v164.78c0,14.33,15.5,23.29,27.92,16.15l139.74-80.44c7.7-4.43,12.45-12.64,12.45-21.53v-164.78c0-14.33-15.5-23.29-27.92-16.15l-139.74,80.44c-7.7,4.43-12.45,12.64-12.45,21.53Z"/>
      <path id="Right__x3C_Path_x3E_" class="cls-1" d="M465.6,654.34v43.12c0,14.34,15.52,23.3,27.94,16.13l139.72-80.65c7.69-4.44,12.42-12.64,12.42-21.51v-43.12c0-14.34-15.52-23.3-27.94-16.13l-139.72,80.65c-7.69,4.44-12.42,12.64-12.42,21.51Z"/>
      <path class="cls-1" d="M86.44,285.4l141.98,81.98c7.69,4.44,17.16,4.44,24.84,0l142.58-82.35c12.42-7.17,12.42-25.1,0-32.27l-141.96-81.95c-7.68-4.44-17.15-4.44-24.84,0l-142.61,82.32c-12.42,7.17-12.42,25.1,0,32.27Z"/>
      <path class="cls-1" d="M58.87,511.05l142.82,82.45c12.42,7.17,27.94-1.79,27.94-16.13v-163.65c0-8.87-4.73-17.07-12.42-21.51l-142.82-82.45c-12.42-7.17-27.94,1.79-27.94,16.13v163.65c0,8.87,4.73,17.07,12.42,21.51Z"/>
    </g>
  </g>
</svg>