<svg xmlns="http://www.w3.org/2000/svg" viewBox="0 0 285 325.47"><defs><style>.cls-1{fill:#e13e1e;}.cls-2{fill:#f7a612;}.cls-3{fill:#fff;}</style></defs><g id="Layer_2" data-name="Layer 2"><g id="Logo_RGB_White" data-name="Logo RGB White"><path id="Outline" d="M153.72,322.45l123.71-71.93A15.22,15.22,0,0,0,285,237.36V92.84a22.32,22.32,0,0,0-11.1-19.29L151.68,2.47a18.31,18.31,0,0,0-18.36,0L11.1,73.55A22.32,22.32,0,0,0,0,92.84V237.35A15.2,15.2,0,0,0,7.57,250.5l123.71,71.94A22.31,22.31,0,0,0,153.72,322.45Z"/><g id="Right_Path_" data-name="Right &lt;Path&gt;"><path class="cls-1" d="M203,220.44v51.61a8,8,0,0,1-4,6.93l-44,25.39a4,4,0,0,1-6-3.46v-51.6a8,8,0,0,1,4-6.92L197,217A4,4,0,0,1,203,220.44Z"/></g><g id="Right_Path_2" data-name="Right &lt;Path&gt;"><path class="cls-2" d="M149,210.36v12.73a4,4,0,0,0,6,3.46l44-25.39a8,8,0,0,0,4-6.93V181.49a4,4,0,0,0-6-3.46l-44,25.4A8,8,0,0,0,149,210.36Z"/></g><g id="Right_Path_3" data-name="Right &lt;Path&gt;"><path class="cls-1" d="M222,265.69l45-26a8,8,0,0,0,4-6.93V103.26a4,4,0,0,0-6-3.46l-45,26a8,8,0,0,0-4,6.93V262.23A4,4,0,0,0,222,265.69Z"/></g><g id="Left_Path_" data-name="Left &lt;Path&gt;"><path class="cls-2" d="M136,210.36v12.73a4,4,0,0,1-6,3.46l-11-6.34a8,8,0,0,1-4-6.93V200.54a4,4,0,0,1,6-3.46l11,6.35A8,8,0,0,1,136,210.36Z"/></g><g id="Left_Path_2" data-name="Left &lt;Path&gt;"><path class="cls-1" d="M132,242.42,20,177.76a4,4,0,0,0-6,3.46v51.57a8,8,0,0,0,4,6.93l112,64.65a4,4,0,0,0,6-3.46V249.35A8,8,0,0,0,132,242.42Z"/></g><g id="_Path_" data-name="&lt;Path&gt;"><path class="cls-3" d="M136,171.39v12.73a4,4,0,0,1-6,3.46l-11-6.35a8,8,0,0,1-4-6.93V161.57a4,4,0,0,1,6-3.46l11,6.35A8,8,0,0,1,136,171.39Z"/></g><g id="_Path_2" data-name="&lt;Path&gt;"><path class="cls-2" d="M99,145.41l-11-6.35a4,4,0,0,0-6,3.46v51.71a8,8,0,0,0,4,6.93l11,6.34a4,4,0,0,0,6-3.46v-51.7A8,8,0,0,0,99,145.41Z"/></g><g id="_Path_3" data-name="&lt;Path&gt;"><path class="cls-1" d="M14.33,103.26V155a8,8,0,0,0,4,6.93l45,26a4,4,0,0,0,6-3.46v-51.7a8,8,0,0,0-4-6.93l-45-26A4,4,0,0,0,14.33,103.26Z"/></g><g id="_Path_4" data-name="&lt;Path&gt;"><path class="cls-3" d="M149,184.12V171.39a8,8,0,0,1,4-6.93l11-6.35a4,4,0,0,1,6,3.46V174.3a8,8,0,0,1-4,6.93l-11,6.35A4,4,0,0,1,149,184.12Z"/></g><g id="_Path_5" data-name="&lt;Path&gt;"><path class="cls-2" d="M188,168.53l11-6.35a8,8,0,0,0,4-6.93V142.52a4,4,0,0,0-6-3.47l-11,6.36a8,8,0,0,0-4,6.93v12.72A4,4,0,0,0,188,168.53Z"/></g><g id="_Path_6" data-name="&lt;Path&gt;"><path class="cls-1" d="M258.92,88.65l-44.73,25.82a8,8,0,0,1-8,0L146.5,80a8,8,0,0,0-8,0L78.8,114.47a8,8,0,0,1-8,0L26.08,88.65a4,4,0,0,1,0-6.93L138.5,16.82a8,8,0,0,1,8,0l112.42,64.9A4,4,0,0,1,258.92,88.65Z"/></g><g id="_Path_7" data-name="&lt;Path&gt;"><path class="cls-2" d="M138.5,94.74l-11,6.35a4,4,0,0,0,0,6.92l44.94,26a8,8,0,0,0,8,0l11-6.35a4,4,0,0,0,0-6.93L146.5,94.74A8,8,0,0,0,138.5,94.74Z"/></g><g id="_Path_8" data-name="&lt;Path&gt;"><path class="cls-2" d="M112.76,134.08,124,127.61a4,4,0,0,0,0-6.93l-11.19-6.46a8,8,0,0,0-8,0l-11.2,6.46a4,4,0,0,0,0,6.93l11.2,6.47A8,8,0,0,0,112.76,134.08Z"/></g><g id="_Path_9" data-name="&lt;Path&gt;"><path class="cls-3" d="M146.5,153.56l11.19-6.47a4,4,0,0,0,0-6.93L146.5,133.7a8,8,0,0,0-8,0l-11.19,6.46a4,4,0,0,0,0,6.93l11.19,6.47A8,8,0,0,0,146.5,153.56Z"/></g></g></g></svg>