<?xml version="1.0" encoding="UTF-8"?>
<svg id="Layer_2" xmlns="http://www.w3.org/2000/svg" viewBox="0 0 899.94 1023">
  <defs>
    <style>
      .cls-1 {
        fill: #7ec138;
      }

      .cls-2 {
        fill: #fff;
      }

      .cls-3 {
        fill: #12af68;
      }
    </style>
  </defs>
  <g id="Layer_15">
    <g>
      <g>
        <path d="M899.94,260.54c0-17.71-9.16-33.58-24.5-42.44l-141.37-81.64c-8.37-4.84-17.91-7.39-27.58-7.39s-19.21,2.56-27.58,7.39l-9.95,5.75c.82-3.59,1.27-7.31,1.27-11.12,0-17.71-9.16-33.58-24.5-42.44L504.97,7.39c-8.37-4.83-17.91-7.39-27.58-7.39s-19.21,2.56-27.58,7.39l-140.78,81.3c-15.34,8.86-24.5,24.73-24.5,42.44,0,.34.03.67.03,1l-45.34-26.17c-8.37-4.83-17.91-7.39-27.58-7.39s-19.2,2.55-27.58,7.39L42.7,187.57c-15.34,8.86-24.5,24.72-24.5,42.44,0,17.06,8.51,32.38,22.83,41.4-23.23,3.84-41.03,24.01-41.03,48.32v162.23c0,19.64,10.57,37.95,27.58,47.77l2.71,1.56v221.34c0,19.79,10.55,38.07,27.69,47.97l367.81,212.5c22.86,13.21,51.04,13.21,73.9,0l367.8-212.45c17.14-9.9,27.69-28.19,27.69-47.97v-429.48c0-10.87-2.42-21.39-6.83-30.94,7.41-8.68,11.59-19.77,11.59-31.71Z"/>
        <path class="cls-1" d="M42.85,503.28l141.58,81.73c12.31,7.11,27.7-1.78,27.7-15.99v-162.23c0-8.8-4.69-16.93-12.31-21.33l-141.58-81.73c-12.31-7.11-27.7,1.78-27.7,15.99v162.23c0,8.8,4.69,16.93,12.31,21.33Z"/>
      </g>
      <g>
        <path class="cls-1" d="M682.81,673.17v168.68c0,11.85,12.82,19.25,23.08,13.33l146.2-84.37c7.62-4.4,12.32-12.53,12.32-21.33v-168.7c0-11.85-12.82-19.25-23.08-13.33l-146.2,84.4c-7.62,4.4-12.31,12.53-12.31,21.33Z"/>
        <path id="_x3C_Path_x3E_" class="cls-2" d="M476.59,552.87v42.73c0,14.22,15.39,23.1,27.7,15.99l36.93-21.32c7.62-4.4,12.31-12.53,12.31-21.32v-42.73c0-14.22-15.39-23.1-27.7-15.99l-36.93,21.32c-7.62,4.4-12.31,12.53-12.31,21.32Z"/>
        <g id="_x3C_Path_x3E_-2" data-name="_x3C_Path_x3E_">
          <path class="cls-3" d="M293.15,393.42l37.53,21.67c7.62,4.4,17,4.4,24.62,0l37.53-21.67c12.31-7.11,12.31-24.88,0-31.99l-37.53-21.67c-7.62-4.4-17-4.4-24.62,0l-37.53,21.67c-12.31,7.11-12.31,24.88,0,31.99Z"/>
        </g>
        <path id="_x3C_Path_x3E_-3" data-name="_x3C_Path_x3E_" class="cls-2" d="M403.03,481.64l46.77,27c7.62,4.4,17,4.4,24.62,0l46.77-27c8.21-4.74,8.21-16.59,0-21.32l-46.77-27c-7.62-4.4-17-4.4-24.62,0l-46.77,27c-8.21,4.74-8.21,16.59,0,21.32Z"/>
      </g>
      <path id="Left__x3C_Path_x3E_" class="cls-3" d="M384.25,710.23l36.93,21.32c12.31,7.11,27.7-1.78,27.7-15.99v-42.75c0-8.8-4.69-16.93-12.32-21.33l-36.93-21.32c-12.31-7.11-27.7,1.78-27.7,15.99v42.75c0,8.8,4.69,16.93,12.32,21.33Z"/>
      <path class="cls-1" d="M73.38,770.26l141.58,81.73c12.31,7.11,27.7-1.78,27.7-15.99v-162.23c0-8.8-4.69-16.93-12.31-21.33l-141.58-81.73c-12.31-7.11-27.7,1.78-27.7,15.99v162.23c0,8.8,4.69,16.93,12.31,21.33Z"/>
      <path class="cls-1" d="M282.68,891.09l138.51,79.95c12.31,7.11,27.7-1.78,27.7-15.99v-162.23c0-8.8-4.69-16.93-12.31-21.32l-138.51-79.97c-12.31-7.11-27.7,1.78-27.7,15.99v162.26c0,8.8,4.69,16.93,12.31,21.33Z"/>
      <path id="_x3C_Path_x3E_-4" data-name="_x3C_Path_x3E_" class="cls-2" d="M384.25,590.25l36.94,21.34c12.31,7.11,27.7-1.77,27.7-15.99v-42.74c0-8.8-4.69-16.93-12.32-21.33l-36.93-21.32c-12.31-7.11-27.7,1.78-27.7,15.99v42.72c0,8.8,4.69,16.92,12.31,21.32Z"/>
      <path class="cls-3" d="M273.52,642.44l36.93,21.32c12.31,7.11,27.7-1.78,27.7-15.99v-162.7c0-8.8-4.69-16.92-12.31-21.32l-36.94-21.34c-12.31-7.11-27.7,1.77-27.7,15.99v162.72c0,8.8,4.69,16.93,12.31,21.33Z"/>
      <path id="_x3C_Path_x3E_-5" data-name="_x3C_Path_x3E_" class="cls-3" d="M578.16,494.23v42.72c0,14.22,15.39,23.1,27.7,15.99l36.93-21.32c7.61-4.4,12.31-12.52,12.31-21.31l.02-42.74c0-14.22-15.39-23.11-27.7-16l-36.95,21.34c-7.62,4.4-12.31,12.53-12.31,21.32Z"/>
      <path class="cls-1" d="M324.3,147.12l140.78,81.24c7.62,4.4,17,4.4,24.62,0l140.76-81.27c12.31-7.11,12.31-24.88,0-31.99l-140.75-81.27c-7.62-4.4-17.01-4.4-24.63,0l-140.78,81.3c-12.31,7.11-12.31,24.88,0,31.99Z"/>
      <path class="cls-1" d="M553.45,276.16l141.35,81.64c7.62,4.4,17.01,4.4,24.63,0l140.75-81.27c12.31-7.11,12.31-24.88,0-31.99l-141.37-81.64c-7.62-4.4-17.01-4.4-24.63,0l-140.73,81.27c-12.31,7.11-12.31,24.88,0,31.98Z"/>
      <path class="cls-1" d="M682.81,433.81v162.7c0,14.21,15.39,23.1,27.7,16l141.58-81.71c7.62-4.4,12.32-12.53,12.32-21.33v-162.72c0-14.22-15.39-23.1-27.7-15.99l-141.58,81.73c-7.62,4.4-12.31,12.53-12.31,21.33Z"/>
      <path class="cls-1" d="M476.59,792.09v163.35c0,14.21,15.37,23.09,27.68,16.01l138.53-79.74c7.63-4.39,12.34-12.53,12.34-21.34v-163.35c0-14.21-15.37-23.09-27.68-16.01l-138.53,79.74c-7.63,4.39-12.34,12.53-12.34,21.34Z"/>
      <path id="Right__x3C_Path_x3E_" class="cls-3" d="M476.59,672.8v42.75c0,14.22,15.39,23.1,27.7,15.99l138.51-79.95c7.62-4.4,12.31-12.53,12.31-21.33v-42.75c0-14.22-15.39-23.1-27.7-15.99l-138.51,79.95c-7.62,4.4-12.31,12.53-12.31,21.33Z"/>
      <path class="cls-1" d="M57.96,246l140.75,81.27c7.62,4.4,17.01,4.4,24.63,0l141.34-81.63c12.31-7.11,12.31-24.88,0-31.99l-140.73-81.24c-7.62-4.4-17-4.4-24.62,0L57.97,214.01c-12.31,7.11-12.31,24.88,0,31.99Z"/>
      <path id="_x3C_Path_x3E_-6" data-name="_x3C_Path_x3E_" class="cls-3" d="M428.16,351.42l141.39,81.63c7.62,4.4,17,4.4,24.62,0l36.9-21.31c12.31-7.11,12.31-24.88,0-31.99l-141.39-81.63c-7.62-4.4-17-4.4-24.62,0l-36.9,21.31c-12.31,7.11-12.31,24.88,0,31.99Z"/>
    </g>
  </g>
</svg>